<?xml version="1.0" encoding="UTF-8" standalone="no"?>
<!-- Generator: Adobe Illustrator 17.0.2, SVG Export Plug-In . SVG Version: 6.00 Build 0)  -->

<svg
   xmlns:dc="http://purl.org/dc/elements/1.1/"
   xmlns:cc="http://creativecommons.org/ns#"
   xmlns:rdf="http://www.w3.org/1999/02/22-rdf-syntax-ns#"
   xmlns:svg="http://www.w3.org/2000/svg"
   xmlns="http://www.w3.org/2000/svg"
   xmlns:sodipodi="http://sodipodi.sourceforge.net/DTD/sodipodi-0.dtd"
   xmlns:inkscape="http://www.inkscape.org/namespaces/inkscape"
   version="1.1"
   id="Layer_1"
   x="0px"
   y="0px"
   width="256"
   height="256"
   viewBox="0 0 256 255.99999"
   enable-background="new 0 0 595.276 841.89"
   xml:space="preserve"
   inkscape:version="0.91 r13725"
   sodipodi:docname="freebsd-logo.svg"><metadata
     id="metadata639"><rdf:RDF><cc:Work
         rdf:about=""><dc:format>image/svg+xml</dc:format><dc:type
           rdf:resource="http://purl.org/dc/dcmitype/StillImage" /><dc:title></dc:title></cc:Work></rdf:RDF></metadata><defs
     id="defs637" /><sodipodi:namedview
     pagecolor="#ffffff"
     bordercolor="#666666"
     borderopacity="1"
     objecttolerance="10"
     gridtolerance="10"
     guidetolerance="10"
     inkscape:pageopacity="0"
     inkscape:pageshadow="2"
     inkscape:window-width="1920"
     inkscape:window-height="1019"
     id="namedview635"
     showgrid="false"
     fit-margin-top="0"
     fit-margin-left="0"
     fit-margin-right="0"
     fit-margin-bottom="0"
     inkscape:zoom="0.79286936"
     inkscape:cx="-28.856973"
     inkscape:cy="75.904283"
     inkscape:window-x="0"
     inkscape:window-y="28"
     inkscape:window-maximized="0"
     inkscape:current-layer="Layer_1" /><g
     id="g361"
     transform="translate(-678.14582,-563.69675)"><path
       d="m 878.598,605.07 c 8.066,8.064 -14.297,43.508 -18.077,47.29 -3.78,3.774 -13.383,0.302 -21.448,-7.764 -8.066,-8.063 -11.541,-17.669 -7.761,-21.448 3.781,-3.783 39.22,-26.143 47.286,-18.078 z"
       id="path363"
       inkscape:connector-curvature="0" /><path
       d="m 765.474,613.603 c -12.314,-6.987 -29.839,-14.761 -35.414,-9.187 -5.648,5.647 2.41,23.566 9.47,35.904 6.283,-10.924 15.225,-20.122 25.944,-26.717 z"
       id="path365"
       inkscape:connector-curvature="0" /><path
       d="m 866.295,649.578 c 1.135,3.848 0.928,7.025 -0.908,8.86 -4.299,4.298 -15.901,-0.276 -26.362,-10.233 -0.729,-0.653 -1.454,-1.333 -2.167,-2.046 -3.78,-3.784 -6.725,-7.813 -8.607,-11.522 -3.663,-6.572 -4.58,-12.377 -1.81,-15.146 1.508,-1.508 3.923,-1.919 6.868,-1.389 1.92,-1.214 4.186,-2.568 6.674,-3.953 -10.111,-5.273 -21.603,-8.252 -33.799,-8.252 -40.441,0 -73.228,32.781 -73.228,73.226 0,40.44 32.786,73.225 73.228,73.225 40.442,0 73.229,-32.784 73.229,-73.225 0,-13.06 -3.427,-25.308 -9.416,-35.926 -1.295,2.362 -2.553,4.526 -3.702,6.381 z"
       id="path367"
       inkscape:connector-curvature="0" /></g><g
     id="g457"
     transform="translate(-689.497,-564.95799)"><g
       id="g459"><path
         d="m 332.683,198.108 c 0,1.337 -1.083,2.418 -2.419,2.418 l -32.624,0 c -1.336,0 -2.419,-1.081 -2.419,-2.418 l 0,0 c 0,-1.336 1.083,-2.42 2.419,-2.42 l 32.624,0 c 1.336,0.001 2.419,1.085 2.419,2.42 l 0,0 z"
         id="path461"
         inkscape:connector-curvature="0"
         style="fill:#ffffff" /><circle
         cx="323.84399"
         cy="211.601"
         r="2.3989999"
         id="circle463"
         style="fill:#ffffff" /><path
         d="m 301.467,195.68 c -1.323,0 -2.398,-1.075 -2.398,-2.399 0,-0.125 0.012,-0.247 0.031,-0.367 l -3.597,0 0,4.543 5.991,0 0,-1.778 c -0.009,-0.001 -0.018,0.001 -0.027,0.001 z"
         id="path465"
         inkscape:connector-curvature="0"
         style="fill:#ffffff" /><path
         d="m 299.068,202.784 c 0,-1.326 1.075,-2.4 2.398,-2.4 0.009,0 0.019,0.002 0.027,0.002 l 0,-1.689 -5.991,0 0,4.546 3.61,0 c -0.028,-0.149 -0.044,-0.303 -0.044,-0.459 z"
         id="path467"
         inkscape:connector-curvature="0"
         style="fill:#ffffff" /><path
         d="m 326.789,192.292 c 0.137,0.303 0.214,0.636 0.214,0.988 0,1.324 -1.073,2.399 -2.398,2.399 -0.06,0 -0.119,-0.005 -0.18,-0.011 l 0,2.408 5.372,0 0,-5.785 -3.008,0 z"
         id="path469"
         inkscape:connector-curvature="0"
         style="fill:#ffffff" /><path
         d="m 312.953,178.454 c -10.88,0 -19.699,8.82 -19.699,19.699 0,10.88 8.819,19.698 19.699,19.698 4.82,0 9.235,-1.732 12.659,-4.606 l -3.458,-3.4 c -2.531,1.996 -5.727,3.188 -9.201,3.188 -8.217,0 -14.878,-6.662 -14.878,-14.879 0,-8.217 6.662,-14.878 14.878,-14.878 8.218,0 14.878,6.661 14.878,14.878 0,0.044 0,0.086 -0.001,0.13 l 4.821,0 c 0,-0.044 0.002,-0.086 0.002,-0.13 0,-10.88 -8.819,-19.7 -19.7,-19.7 z"
         id="path471"
         inkscape:connector-curvature="0"
         style="fill:#ffffff" /></g><g
       id="g473"><path
         d="m 377.864,198.108 c 0,1.337 -1.082,2.418 -2.418,2.418 l -32.625,0 c -1.336,0 -2.418,-1.081 -2.418,-2.418 l 0,0 c 0,-1.336 1.082,-2.42 2.418,-2.42 l 32.625,0 c 1.336,0.001 2.418,1.085 2.418,2.42 l 0,0 z"
         id="path475"
         inkscape:connector-curvature="0"
         style="fill:#ffffff" /><circle
         cx="369.026"
         cy="211.601"
         r="2.3989999"
         id="circle477"
         style="fill:#ffffff" /><path
         d="m 346.648,195.68 c -1.325,0 -2.396,-1.075 -2.396,-2.399 0,-0.125 0.012,-0.247 0.03,-0.367 l -3.598,0 0,4.543 5.991,0 0,-1.778 c -0.009,-0.001 -0.018,0.001 -0.027,0.001 z"
         id="path479"
         inkscape:connector-curvature="0"
         style="fill:#ffffff" /><path
         d="m 344.252,202.784 c 0,-1.326 1.071,-2.4 2.396,-2.4 0.009,0 0.018,0.002 0.027,0.002 l 0,-1.689 -5.991,0 0,4.546 3.61,0 c -0.027,-0.149 -0.042,-0.303 -0.042,-0.459 z"
         id="path481"
         inkscape:connector-curvature="0"
         style="fill:#ffffff" /><path
         d="m 371.971,192.292 c 0.136,0.303 0.215,0.636 0.215,0.988 0,1.324 -1.074,2.399 -2.398,2.399 -0.06,0 -0.12,-0.005 -0.18,-0.011 l 0,2.408 5.372,0 0,-5.785 -3.009,0 z"
         id="path483"
         inkscape:connector-curvature="0"
         style="fill:#ffffff" /><path
         d="m 358.135,178.454 c -10.879,0 -19.699,8.82 -19.699,19.699 0,10.88 8.82,19.698 19.699,19.698 4.821,0 9.236,-1.732 12.658,-4.606 l -3.456,-3.4 c -2.532,1.996 -5.727,3.188 -9.202,3.188 -8.216,0 -14.878,-6.662 -14.878,-14.879 0,-8.217 6.662,-14.878 14.878,-14.878 8.219,0 14.88,6.661 14.88,14.878 0,0.044 -0.002,0.086 -0.002,0.13 l 4.82,0 c 0,-0.044 10e-4,-0.086 10e-4,-0.13 0,-10.88 -8.818,-19.7 -19.699,-19.7 z"
         id="path485"
         inkscape:connector-curvature="0"
         style="fill:#ffffff" /></g><g
       id="g487"><path
         d="m 276.732,182.997 c 0.008,0.02 0.016,0.042 0.026,0.063 -4.667,0.861 -8.203,4.948 -8.203,9.864 0,0.183 0.005,0.361 0.015,0.543 l 0,21.906 c 0,1.369 -1.109,2.478 -2.479,2.478 -1.369,0 -2.478,-1.108 -2.478,-2.478 l 0,-23.227 c 0.501,-7.173 6.088,-12.944 13.178,-13.732 1.005,0.274 1.743,1.191 1.743,2.282 0,1.116 -0.767,2.045 -1.802,2.301 z"
         id="path489"
         inkscape:connector-curvature="0"
         style="fill:#ffffff" /><circle
         cx="288.315"
         cy="185.649"
         r="2.398"
         id="circle491"
         style="fill:#ffffff" /><path
         d="m 286.826,187.666 c 0.895,-1.419 1.965,-2.716 3.181,-3.86 -2.728,-3.391 -6.91,-5.561 -11.599,-5.561 -7.913,0 -14.382,6.176 -14.851,13.971 l 4.857,0 c 0.46,-5.117 4.757,-9.129 9.994,-9.129 3.53,0 6.629,1.824 8.418,4.579 z"
         id="path493"
         inkscape:connector-curvature="0"
         style="fill:#ffffff" /></g><path
       d="m 446.157,217.657 c 7.202,-0.826 13.9,-7.779 12.733,-15.191 -0.493,-3.137 -2.549,-6.371 -5.95,-8.621 -2.659,-1.759 -15.646,-7.899 -17.925,-9.477 -1.397,-1.07 -4.139,-4.002 -4.341,-5.892 -0.548,-5.093 2.232,-7.272 5.05,-8.575 1.16,-0.547 2.661,-0.747 3.277,-0.819 5.257,-0.614 6.963,0.341 11.77,2.622 0.495,0.234 0.987,0.246 1.52,0.162 1.617,-0.254 2.734,-0.963 2.48,-2.579 -0.19,-1.2 -0.857,-1.749 -2.109,-2.37 -3.353,-1.658 -9.638,-3.645 -14.933,-2.811 -0.089,0.013 -0.175,0.032 -0.263,0.046 l -0.013,-0.074 c -7.346,1.222 -13.168,7.865 -12.008,15.236 0.624,3.962 3.672,7.281 6.788,9.309 2.087,1.75 9.628,4.781 17.091,8.918 2.647,1.468 3.715,2.918 4.102,6.201 0.403,3.406 -3.543,7.276 -6.628,8.447 -4.796,1.406 -10.432,-0.588 -14.188,-2.575 -1.121,-0.73 -1.636,-1.116 -2.668,-0.953 -1.615,0.255 -2.719,1.77 -2.466,3.387 0.17,1.075 0.789,1.829 1.842,2.294 6.681,2.939 11.185,3.963 16.839,3.315 z"
       id="path495"
       inkscape:connector-curvature="0"
       style="fill:#ffffff" /><g
       id="g497"><path
         d="m 240.28,176.802 c 0.021,0.01 0.044,0.017 0.066,0.026 0.9,-4.869 5.166,-8.559 10.296,-8.559 0.19,0 0.379,0.006 0.567,0.016 l 10.499,0 c 1.428,0 2.587,-1.158 2.587,-2.587 0,-1.43 -1.159,-2.588 -2.587,-2.588 l -11.879,0 c -7.487,0.524 -13.511,6.355 -14.333,13.757 0.288,1.047 1.245,1.816 2.383,1.816 1.164,0 2.135,-0.801 2.401,-1.881 z"
         id="path499"
         inkscape:connector-curvature="0"
         style="fill:#ffffff" /><path
         d="m 237.164,191.143 c 0,1.404 1.137,2.542 2.542,2.542 l 16.168,0 c 1.404,0 2.542,-1.138 2.542,-2.541 l 0,0 c 0,-1.404 -1.137,-2.543 -2.542,-2.543 l -16.168,0 c -1.405,0 -2.542,1.138 -2.542,2.542 l 0,0 z"
         id="path501"
         inkscape:connector-curvature="0"
         style="fill:#ffffff" /><path
         d="m 247.011,165.663 c 0,1.383 1.266,2.504 2.826,2.504 l 2.228,0 c 1.562,0 2.827,-1.121 2.827,-2.504 l 0,0 c 0,-1.385 -1.266,-2.507 -2.827,-2.507 l -2.228,0 c -1.56,0 -2.826,1.122 -2.826,2.507 l 0,0 z"
         id="path503"
         inkscape:connector-curvature="0"
         style="fill:#ffffff" /><g
         id="g505"><path
           d="m 238.085,172.135 c 1.43,0 2.588,0.84 2.588,1.875 l 0,41.65 c 0,1.036 -1.158,1.875 -2.588,1.875 l 0,0 c -1.428,0 -2.587,-0.839 -2.587,-1.875 l 0,-39.212 c 0,-1.035 1.159,-4.313 2.587,-4.313 l 0,0 z"
           id="path507"
           inkscape:connector-curvature="0"
           style="fill:#ffffff" /></g><path
         d="m 240.973,197.386 c 0,-0.639 0.163,-1.238 0.446,-1.762 0.627,-1.152 1.846,-1.935 3.25,-1.935 l 1.22,0 0,-3.722 -8.991,0 0,8.154 4.074,0 0,-0.735 z"
         id="path509"
         inkscape:connector-curvature="0"
         style="fill:#ffffff" /><path
         d="m 240.973,184.88 c 0,0.639 0.163,1.238 0.446,1.763 0.627,1.153 1.846,1.935 3.25,1.935 l 1.22,0 0,3.722 -8.991,0 0,-8.153 4.074,0 0,0.733 z"
         id="path511"
         inkscape:connector-curvature="0"
         style="fill:#ffffff" /><path
         d="m 240.533,177.989 c 0.225,-5.091 4.151,-9.219 9.154,-9.758 l 0,-5.052 c -7.784,0.559 -13.956,6.938 -14.189,14.81 l 5.035,0 z"
         id="path513"
         inkscape:connector-curvature="0"
         style="fill:#ffffff" /></g><g
       id="g515"><path
         d="m 386.564,215.4 c 0,-1.349 1.233,-2.443 2.756,-2.443 l 22.357,0 c 1.521,0 2.757,1.095 2.757,2.443 l 0,0 c 0,1.35 -1.235,2.443 -2.757,2.443 l -22.357,0 c -1.522,0.001 -2.756,-1.093 -2.756,-2.443 l 0,0 z"
         id="path517"
         inkscape:connector-curvature="0"
         style="fill:#ffffff" /><path
         d="m 388.632,217.701 c -1.351,0 -2.443,-1.233 -2.443,-2.756 l 0,-37.122 c 0,-1.522 1.093,-2.756 2.443,-2.756 l 0,0 c 1.35,0 2.443,1.233 2.443,2.756 l 0,37.122 c 0,1.523 -1.094,2.756 -2.443,2.756 l 0,0 z"
         id="path519"
         inkscape:connector-curvature="0"
         style="fill:#ffffff" /><path
         d="m 410.396,186.745 0,4.782 c 5.837,0.09 10.542,4.847 10.542,10.706 0,5.858 -4.705,10.615 -10.542,10.705 l 0,5.062 c 8.611,-0.02 15.589,-7.009 15.589,-15.627 0,-8.618 -6.977,-15.606 -15.589,-15.628 z"
         id="path521"
         inkscape:connector-curvature="0"
         style="fill:#ffffff" /><path
         d="m 387.475,188.972 c 0,1.37 1.11,2.479 2.48,2.479 l 20.109,0 c 1.369,0 2.478,-1.108 2.478,-2.479 l 0,0 c 0,-1.368 -1.109,-2.478 -2.478,-2.478 l -20.109,0 c -1.37,0 -2.48,1.11 -2.48,2.478 l 0,0 z"
         id="path523"
         inkscape:connector-curvature="0"
         style="fill:#ffffff" /><path
         d="m 398.197,165.599 c 0,1.35 0.685,2.443 1.528,2.443 l 6.173,0 c 0.844,0 1.528,-1.094 1.528,-2.442 l 0,0 c 0,-1.351 -0.685,-2.443 -1.528,-2.443 l -6.173,0 c -0.843,-0.001 -1.528,1.092 -1.528,2.442 l 0,0 z"
         id="path525"
         inkscape:connector-curvature="0"
         style="fill:#ffffff" /><path
         d="m 391.189,194.429 c 0,-0.622 0.158,-1.207 0.437,-1.718 0.608,-1.124 1.801,-1.887 3.169,-1.887 l 1.188,0 0,-3.628 -8.765,0 0,7.949 3.972,0 0,-0.716 z"
         id="path527"
         inkscape:connector-curvature="0"
         style="fill:#ffffff" /><path
         d="m 391.189,183.075 c 0,0.623 0.158,1.209 0.437,1.719 0.608,1.123 1.801,1.887 3.169,1.887 l 1.188,0 0,3.629 -8.765,0 0,-7.949 3.972,0 0,0.714 z"
         id="path529"
         inkscape:connector-curvature="0"
         style="fill:#ffffff" /><path
         d="m 405.348,163.144 0,4.652 c 5.231,0.018 9.468,4.265 9.468,9.502 0,5.236 -4.236,9.482 -9.468,9.502 l 0,4.651 c 7.801,-0.019 14.12,-6.348 14.12,-14.153 0,-7.807 -6.32,-14.137 -14.12,-14.154 z"
         id="path531"
         inkscape:connector-curvature="0"
         style="fill:#ffffff" /><path
         d="m 404.646,163.424 0,4.56 c 5.232,0.02 9.469,4.182 9.469,9.314 0,5.133 -4.236,9.295 -9.469,9.312 l 0,4.561 c 7.802,-0.018 14.12,-6.223 14.12,-13.873 10e-4,-7.652 -6.318,-13.856 -14.12,-13.874 z"
         id="path533"
         inkscape:connector-curvature="0"
         style="fill:#ffffff" /><path
         d="m 391.024,177.618 c 0.219,-4.965 4.049,-8.988 8.927,-9.514 l 0,-4.926 c -7.592,0.545 -13.61,6.765 -13.836,14.439 l 4.909,0 z"
         id="path535"
         inkscape:connector-curvature="0"
         style="fill:#ffffff" /></g><g
       id="g537"><path
         d="m 464.27,214.964 c 0,-1.25 0.845,-2.262 1.888,-2.262 l 15.311,0 c 1.042,0 1.888,1.012 1.888,2.262 l 0,0 c 0,1.25 -5.074,2.262 -6.116,2.262 l -11.083,0 c -1.043,0 -1.888,-1.012 -1.888,-2.262 l 0,0 z"
         id="path539"
         inkscape:connector-curvature="0"
         style="fill:#ffffff" /><path
         d="m 468.663,209.183 c 0,0.621 0.158,1.207 0.436,1.719 0.61,1.123 1.801,1.885 3.169,1.885 l 1.189,0 0,3.63 -8.765,0 0,-7.95 3.972,0 0,0.716 z"
         id="path541"
         inkscape:connector-curvature="0"
         style="fill:#ffffff" /><path
         d="m 477.799,164.286 c -0.237,-0.029 -0.43,-0.045 -0.558,-0.045 l -4.9,0 0.002,0.028 c -0.041,0 -0.083,-0.002 -0.124,-0.002 -4.429,0 -8.063,3.386 -8.464,7.709 l 0,42.492 c 0,1.523 1.094,2.757 2.443,2.757 1.349,0 2.442,-1.234 2.442,-2.757 l 0,-42.214 c 0.006,-0.611 0.161,-1.186 0.435,-1.689 0.491,-0.905 1.36,-1.575 2.395,-1.802 l 8.113,0 c 11.066,1.392 19.619,10.707 19.619,21.992 0,12.037 -9.731,21.834 -21.861,22.164 l 0,4.322 c 14.552,-0.33 26.246,-12.062 26.246,-26.486 0,-14.27 -11.449,-25.904 -25.788,-26.469 z"
         id="path543"
         inkscape:connector-curvature="0"
         style="fill:#ffffff" /></g></g><g
     id="g545"
     transform="translate(-689.497,-564.95799)"><g
       id="g547"><path
         d="m 782.332,801.958 c 0,1.276 -1.034,2.309 -2.31,2.309 l -31.163,0 c -1.276,0 -2.31,-1.032 -2.31,-2.309 l 0,0 c 0,-1.277 1.034,-2.312 2.31,-2.312 l 31.163,0 c 1.276,0 2.31,1.035 2.31,2.312 l 0,0 z"
         id="path549"
         inkscape:connector-curvature="0" /><circle
         cx="773.89001"
         cy="814.84601"
         r="2.2909999"
         id="circle551" /><path
         d="m 752.514,799.638 c -1.264,0 -2.291,-1.027 -2.291,-2.293 0,-0.119 0.012,-0.235 0.03,-0.35 l -3.435,0 0,4.339 5.723,0 0,-1.698 c -0.01,0 -0.019,0.002 -0.027,0.002 z"
         id="path553"
         inkscape:connector-curvature="0" /><path
         d="m 750.223,806.424 c 0,-1.267 1.027,-2.293 2.291,-2.293 0.009,0 0.018,0.002 0.026,0.002 l 0,-1.614 -5.723,0 0,4.343 3.448,0 c -0.027,-0.142 -0.042,-0.289 -0.042,-0.438 z"
         id="path555"
         inkscape:connector-curvature="0" /><path
         d="m 776.703,796.401 c 0.13,0.289 0.204,0.607 0.204,0.943 0,1.266 -1.025,2.293 -2.291,2.293 -0.058,0 -0.114,-0.005 -0.172,-0.011 l 0,2.3 5.132,0 0,-5.525 -2.873,0 z"
         id="path557"
         inkscape:connector-curvature="0" /><path
         d="m 763.486,783.183 c -10.392,0 -18.817,8.426 -18.817,18.817 0,10.394 8.425,18.817 18.817,18.817 4.604,0 8.822,-1.656 12.093,-4.4 l -3.304,-3.248 c -2.418,1.906 -5.471,3.044 -8.789,3.044 -7.85,0 -14.213,-6.364 -14.213,-14.213 0,-7.849 6.363,-14.212 14.213,-14.212 7.85,0 14.212,6.363 14.212,14.212 0,0.042 0,0.083 -10e-4,0.124 l 4.605,0 c 0,-0.041 0.002,-0.082 0.002,-0.124 10e-4,-10.392 -8.424,-18.817 -18.818,-18.817 z"
         id="path559"
         inkscape:connector-curvature="0" /></g><g
       id="g561"><path
         d="m 825.492,801.958 c 0,1.276 -1.034,2.309 -2.311,2.309 l -31.164,0 c -1.276,0 -2.31,-1.032 -2.31,-2.309 l 0,0 c 0,-1.277 1.033,-2.312 2.31,-2.312 l 31.164,0 c 1.277,0 2.311,1.035 2.311,2.312 l 0,0 z"
         id="path563"
         inkscape:connector-curvature="0" /><circle
         cx="817.04901"
         cy="814.84601"
         r="2.2909999"
         id="circle565" /><path
         d="m 795.673,799.638 c -1.266,0 -2.289,-1.027 -2.289,-2.293 0,-0.119 0.012,-0.235 0.029,-0.35 l -3.437,0 0,4.339 5.723,0 0,-1.698 c -0.009,0 -0.017,0.002 -0.026,0.002 z"
         id="path567"
         inkscape:connector-curvature="0" /><path
         d="m 793.384,806.424 c 0,-1.267 1.023,-2.293 2.289,-2.293 0.009,0 0.017,0.002 0.026,0.002 l 0,-1.614 -5.723,0 0,4.343 3.448,0 c -0.026,-0.142 -0.04,-0.289 -0.04,-0.438 z"
         id="path569"
         inkscape:connector-curvature="0" /><path
         d="m 819.862,796.401 c 0.129,0.289 0.205,0.607 0.205,0.943 0,1.266 -1.026,2.293 -2.291,2.293 -0.058,0 -0.115,-0.005 -0.172,-0.011 l 0,2.3 5.132,0 0,-5.525 -2.874,0 z"
         id="path571"
         inkscape:connector-curvature="0" /><path
         d="m 806.646,783.183 c -10.392,0 -18.817,8.426 -18.817,18.817 0,10.394 8.426,18.817 18.817,18.817 4.605,0 8.823,-1.656 12.092,-4.4 l -3.302,-3.248 c -2.419,1.906 -5.471,3.044 -8.79,3.044 -7.849,0 -14.212,-6.364 -14.212,-14.213 0,-7.849 6.363,-14.212 14.212,-14.212 7.851,0 14.214,6.363 14.214,14.212 0,0.042 -0.002,0.083 -0.002,0.124 l 4.604,0 c 0,-0.041 10e-4,-0.082 10e-4,-0.124 0,-10.392 -8.424,-18.817 -18.817,-18.817 z"
         id="path573"
         inkscape:connector-curvature="0" /></g><g
       id="g575"><path
         d="m 728.887,787.523 c 0.008,0.018 0.015,0.04 0.024,0.06 -4.457,0.822 -7.835,4.727 -7.835,9.423 0,0.175 0.005,0.345 0.014,0.518 l 0,20.926 c 0,1.308 -1.06,2.367 -2.367,2.367 -1.309,0 -2.368,-1.06 -2.368,-2.367 l 0,-22.188 c 0.479,-6.852 5.815,-12.365 12.588,-13.117 0.961,0.262 1.665,1.139 1.665,2.18 -10e-4,1.065 -0.733,1.953 -1.721,2.198 z"
         id="path577"
         inkscape:connector-curvature="0" /><circle
         cx="739.95099"
         cy="790.05603"
         r="2.2909999"
         id="circle579" /><path
         d="m 738.528,791.982 c 0.855,-1.355 1.877,-2.595 3.039,-3.688 -2.605,-3.239 -6.602,-5.312 -11.08,-5.312 -7.56,0 -13.739,5.898 -14.187,13.346 l 4.64,0 c 0.44,-4.889 4.545,-8.721 9.547,-8.721 3.371,10e-4 6.332,1.744 8.041,4.375 z"
         id="path581"
         inkscape:connector-curvature="0" /></g><path
       d="m 890.727,820.632 c 6.88,-0.79 13.278,-7.432 12.164,-14.512 -0.472,-2.996 -2.435,-6.086 -5.685,-8.236 -2.54,-1.68 -14.945,-7.545 -17.122,-9.052 -1.335,-1.022 -3.953,-3.823 -4.147,-5.628 -0.523,-4.865 2.133,-6.947 4.823,-8.191 1.108,-0.523 2.543,-0.713 3.131,-0.783 5.021,-0.586 6.651,0.326 11.244,2.506 0.473,0.224 0.943,0.234 1.451,0.154 1.545,-0.242 2.612,-0.92 2.369,-2.463 -0.182,-1.147 -0.818,-1.672 -2.015,-2.265 -3.202,-1.584 -9.206,-3.481 -14.264,-2.685 -0.085,0.012 -0.167,0.03 -0.251,0.044 l -0.013,-0.071 c -7.017,1.167 -12.578,7.513 -11.47,14.554 0.596,3.785 3.507,6.956 6.483,8.893 1.994,1.672 9.197,4.567 16.326,8.519 2.529,1.401 3.549,2.787 3.919,5.923 0.385,3.254 -3.385,6.95 -6.331,8.069 -4.581,1.344 -9.965,-0.562 -13.553,-2.46 -1.071,-0.698 -1.562,-1.066 -2.549,-0.911 -1.543,0.244 -2.597,1.691 -2.355,3.236 0.163,1.026 0.754,1.746 1.76,2.191 6.382,2.809 10.684,3.785 16.085,3.168 z"
       id="path583"
       inkscape:connector-curvature="0" /><g
       id="g585"><path
         d="m 694.066,781.604 c 0.021,0.01 0.042,0.017 0.062,0.025 0.859,-4.651 4.935,-8.177 9.836,-8.177 0.182,0 0.361,0.005 0.542,0.015 l 10.029,0 c 1.364,0 2.472,-1.105 2.472,-2.471 0,-1.365 -1.107,-2.473 -2.472,-2.473 l -11.348,0 c -7.151,0.502 -12.905,6.071 -13.69,13.142 0.274,1 1.19,1.735 2.276,1.735 1.112,10e-4 2.038,-0.764 2.293,-1.796 z"
         id="path587"
         inkscape:connector-curvature="0" /><path
         d="m 691.09,795.304 c 0,1.341 1.086,2.428 2.427,2.428 l 15.444,0 c 1.342,0 2.429,-1.087 2.429,-2.428 l 0,0 c 0,-1.341 -1.087,-2.429 -2.429,-2.429 l -15.444,0 c -1.341,0 -2.427,1.088 -2.427,2.429 l 0,0 z"
         id="path589"
         inkscape:connector-curvature="0" /><path
         d="m 700.496,770.964 c 0,1.321 1.209,2.392 2.7,2.392 l 2.128,0 c 1.491,0 2.7,-1.071 2.7,-2.392 l 0,0 c 0,-1.322 -1.209,-2.395 -2.7,-2.395 l -2.128,0 c -1.491,0 -2.7,1.073 -2.7,2.395 l 0,0 z"
         id="path591"
         inkscape:connector-curvature="0" /><g
         id="g593"><path
           d="m 691.969,777.146 c 1.366,0 2.473,0.802 2.473,1.791 l 0,39.786 c 0,0.99 -1.106,1.791 -2.473,1.791 l 0,0 c -1.363,0 -2.471,-0.801 -2.471,-1.791 l 0,-37.457 c 0,-0.988 1.107,-4.12 2.471,-4.12 l 0,0 z"
           id="path595"
           inkscape:connector-curvature="0" /></g><path
         d="m 694.727,801.267 c 0,-0.609 0.156,-1.183 0.428,-1.683 0.599,-1.101 1.763,-1.849 3.104,-1.849 l 1.166,0 0,-3.555 -8.589,0 0,7.789 3.891,0 0,-0.702 z"
         id="path597"
         inkscape:connector-curvature="0" /><path
         d="m 694.727,789.321 c 0,0.609 0.156,1.183 0.428,1.684 0.599,1.102 1.763,1.848 3.104,1.848 l 1.166,0 0,3.555 -8.589,0 0,-7.787 3.891,0 0,0.7 z"
         id="path599"
         inkscape:connector-curvature="0" /><path
         d="m 694.308,782.739 c 0.215,-4.863 3.966,-8.807 8.745,-9.322 l 0,-4.824 c -7.438,0.533 -13.333,6.627 -13.555,14.147 l 4.81,0 z"
         id="path601"
         inkscape:connector-curvature="0" /></g><g
       id="g603"><path
         d="m 833.803,818.476 c 0,-1.289 1.178,-2.334 2.632,-2.334 l 21.357,0 c 1.453,0 2.633,1.045 2.633,2.334 l 0,0 c 0,1.289 -1.18,2.334 -2.633,2.334 l -21.357,0 c -1.455,0 -2.632,-1.045 -2.632,-2.334 l 0,0 z"
         id="path605"
         inkscape:connector-curvature="0" /><path
         d="m 835.777,820.673 c -1.29,0 -2.334,-1.178 -2.334,-2.633 l 0,-35.46 c 0,-1.454 1.044,-2.632 2.334,-2.632 l 0,0 c 1.289,0 2.334,1.178 2.334,2.632 l 0,35.46 c 0,1.455 -1.045,2.633 -2.334,2.633 l 0,0 z"
         id="path607"
         inkscape:connector-curvature="0" /><path
         d="m 856.567,791.102 0,4.568 c 5.576,0.086 10.07,4.629 10.07,10.227 0,5.596 -4.494,10.141 -10.07,10.227 l 0,4.834 c 8.227,-0.02 14.892,-6.694 14.892,-14.927 0,-8.232 -6.665,-14.908 -14.892,-14.929 z"
         id="path609"
         inkscape:connector-curvature="0" /><path
         d="m 834.672,793.229 c 0,1.309 1.06,2.367 2.368,2.367 l 19.21,0 c 1.308,0 2.367,-1.059 2.367,-2.367 l 0,0 c 0,-1.307 -1.06,-2.367 -2.367,-2.367 l -19.21,0 c -1.308,0 -2.368,1.061 -2.368,2.367 l 0,0 z"
         id="path611"
         inkscape:connector-curvature="0" /><path
         d="m 844.915,770.903 c 0,1.289 0.653,2.334 1.46,2.334 l 5.896,0 c 0.806,0 1.46,-1.045 1.46,-2.334 l 0,0 c 0,-1.29 -0.654,-2.334 -1.46,-2.334 l -5.896,0 c -0.807,0 -1.46,1.044 -1.46,2.334 l 0,0 z"
         id="path613"
         inkscape:connector-curvature="0" /><path
         d="m 838.221,798.442 c 0,-0.594 0.151,-1.152 0.417,-1.641 0.581,-1.074 1.72,-1.803 3.026,-1.803 l 1.135,0 0,-3.465 -8.372,0 0,7.593 3.794,0 0,-0.684 z"
         id="path615"
         inkscape:connector-curvature="0" /><path
         d="m 838.221,787.597 c 0,0.596 0.151,1.155 0.417,1.643 0.581,1.072 1.72,1.802 3.026,1.802 l 1.135,0 0,3.466 -8.372,0 0,-7.593 3.794,0 0,0.682 z"
         id="path617"
         inkscape:connector-curvature="0" /><path
         d="m 851.745,768.558 0,4.443 c 4.997,0.018 9.044,4.074 9.044,9.077 0,5.002 -4.047,9.058 -9.044,9.077 l 0,4.443 c 7.451,-0.017 13.488,-6.064 13.488,-13.52 0,-7.457 -6.037,-13.504 -13.488,-13.52 z"
         id="path619"
         inkscape:connector-curvature="0" /><path
         d="m 851.075,768.825 0,4.356 c 4.998,0.018 9.045,3.994 9.045,8.897 0,4.903 -4.047,8.879 -9.045,8.895 l 0,4.358 c 7.452,-0.018 13.488,-5.945 13.488,-13.253 0,-7.309 -6.036,-13.235 -13.488,-13.253 z"
         id="path621"
         inkscape:connector-curvature="0" /><path
         d="m 838.062,782.384 c 0.209,-4.742 3.868,-8.586 8.527,-9.088 l 0,-4.705 c -7.252,0.521 -13.001,6.462 -13.217,13.793 l 4.69,0 z"
         id="path623"
         inkscape:connector-curvature="0" /></g><g
       id="g625"><path
         d="m 908.03,818.058 c 0,-1.193 0.807,-2.16 1.804,-2.16 l 14.626,0 c 0.995,0 1.803,0.967 1.803,2.16 l 0,0 c 0,1.195 -4.847,2.161 -5.842,2.161 l -10.587,0 c -0.997,0 -1.804,-0.966 -1.804,-2.161 l 0,0 z"
         id="path627"
         inkscape:connector-curvature="0" /><path
         d="m 912.227,812.536 c 0,0.593 0.15,1.152 0.416,1.642 0.583,1.073 1.72,1.8 3.027,1.8 l 1.135,0 0,3.468 -8.372,0 0,-7.595 3.794,0 0,0.685 z"
         id="path629"
         inkscape:connector-curvature="0" /><path
         d="m 920.953,769.649 c -0.227,-0.028 -0.41,-0.043 -0.532,-0.043 l -4.682,0 0.002,0.027 c -0.039,0 -0.079,-0.002 -0.118,-0.002 -4.23,0 -7.703,3.233 -8.085,7.363 l 0,40.59 c 0,1.455 1.045,2.634 2.334,2.634 1.288,0 2.333,-1.179 2.333,-2.634 l 0,-40.324 c 0.006,-0.584 0.153,-1.133 0.415,-1.613 0.469,-0.864 1.3,-1.504 2.287,-1.721 l 7.75,0 c 10.571,1.33 18.741,10.228 18.741,21.008 0,11.498 -9.296,20.857 -20.883,21.172 l 0,4.129 c 13.9,-0.315 25.071,-11.521 25.071,-25.301 10e-4,-13.632 -10.936,-24.746 -24.633,-25.285 z"
         id="path631"
         inkscape:connector-curvature="0" /></g></g><rect
     x="-716.49701"
     y="-563.95801"
     width="1086"
     height="846"
     id="rect633"
     style="fill:none" /></svg>