<?xml version="1.0" encoding="UTF-8" standalone="no"?>
<!-- Created with Inkscape (http://www.inkscape.org/) -->

<svg
   xmlns:dc="http://purl.org/dc/elements/1.1/"
   xmlns:cc="http://creativecommons.org/ns#"
   xmlns:rdf="http://www.w3.org/1999/02/22-rdf-syntax-ns#"
   xmlns:svg="http://www.w3.org/2000/svg"
   xmlns="http://www.w3.org/2000/svg"
   xmlns:xlink="http://www.w3.org/1999/xlink"
   xmlns:sodipodi="http://sodipodi.sourceforge.net/DTD/sodipodi-0.dtd"
   xmlns:inkscape="http://www.inkscape.org/namespaces/inkscape"
   width="1417.3229"
   height="1417.3229"
   id="svg2"
   sodipodi:version="0.32"
   inkscape:version="0.91 r13725"
   version="1.0"
   sodipodi:docname="logo.svg"
   inkscape:export-filename="/usr/home/kamikaze/graphics/avatars/bsdlogo2.0-styled-shadowed-undreaming.png"
   inkscape:export-xdpi="6.349999904632568"
   inkscape:export-ydpi="6.349999904632568">
  <defs
     id="defs4">
    <inkscape:perspective
       sodipodi:type="inkscape:persp3d"
       inkscape:vp_x="0 : 637.79529 : 1"
       inkscape:vp_y="0 : 1000 : 0"
       inkscape:vp_z="1275.5906 : 637.79529 : 1"
       inkscape:persp3d-origin="637.79529 : 425.19686 : 1"
       id="perspective52" />
    <linearGradient
       id="linearGradient6681">
      <stop
         style="stop-color:#ffffff;stop-opacity:1;"
         offset="0"
         id="stop6683" />
      <stop
         style="stop-color:#ffffff;stop-opacity:0;"
         offset="1"
         id="stop6685" />
    </linearGradient>
    <linearGradient
       id="linearGradient3124">
      <stop
         id="stop3126"
         offset="0"
         style="stop-color:#000000;stop-opacity:1;" />
      <stop
         style="stop-color:#808080;stop-opacity:1;"
         offset="0.44999999"
         id="stop3130" />
      <stop
         id="stop3128"
         offset="1"
         style="stop-color:#202020;stop-opacity:1;" />
    </linearGradient>
    <linearGradient
       id="linearGradient3090">
      <stop
         style="stop-color:#000000;stop-opacity:1;"
         offset="0"
         id="stop3092" />
      <stop
         id="stop3094"
         offset="0.8214286"
         style="stop-color:#808080;stop-opacity:1;" />
      <stop
         style="stop-color:#202020;stop-opacity:1;"
         offset="1"
         id="stop3096" />
    </linearGradient>
    <linearGradient
       id="linearGradient3096">
      <stop
         style="stop-color:#ff4040;stop-opacity:1;"
         offset="0"
         id="stop3098" />
      <stop
         style="stop-color:#600000;stop-opacity:1;"
         offset="1"
         id="stop3100" />
    </linearGradient>
    <radialGradient
       inkscape:collect="always"
       xlink:href="#linearGradient3096"
       id="radialGradient3102"
       cx="554.5"
       cy="554.49976"
       fx="554.5"
       fy="554.49976"
       r="95.5"
       gradientTransform="matrix(2,1.978403,-0.695664,0.703258,-1183.026,-1243.704)"
       gradientUnits="userSpaceOnUse" />
    <linearGradient
       id="linearGradient3066">
      <stop
         style="stop-color:#c00000;stop-opacity:1;"
         offset="0"
         id="stop3068" />
      <stop
         style="stop-color:#400000;stop-opacity:1;"
         offset="1"
         id="stop3070" />
    </linearGradient>
    <radialGradient
       inkscape:collect="always"
       xlink:href="#linearGradient3066"
       id="radialGradient3074"
       cx="517.43665"
       cy="297.65039"
       fx="517.43665"
       fy="297.65039"
       r="144.96875"
       gradientTransform="matrix(2,2.007329,-0.710995,0.708399,-1288.195,-1308.85)"
       gradientUnits="userSpaceOnUse" />
    <radialGradient
       inkscape:collect="always"
       xlink:href="#linearGradient3066"
       id="radialGradient2238"
       cx="120.88493"
       cy="411.30447"
       fx="120.88493"
       fy="411.30447"
       r="120.19545"
       gradientUnits="userSpaceOnUse"
       gradientTransform="matrix(2,2,-0.707107,0.707107,382.5498,91.29682)" />
    <radialGradient
       inkscape:collect="always"
       xlink:href="#linearGradient3066"
       id="radialGradient2246"
       cx="488.58511"
       cy="410.76462"
       fx="488.58511"
       fy="410.76462"
       r="120.19928"
       gradientTransform="matrix(2.008844,2.008851,-0.707111,0.707108,10.14858,-648.5869)"
       gradientUnits="userSpaceOnUse" />
    <radialGradient
       inkscape:collect="always"
       xlink:href="#linearGradient3066"
       id="radialGradient2248"
       cx="300.64514"
       cy="88.046616"
       fx="300.64514"
       fy="88.046616"
       r="124.01708"
       gradientTransform="matrix(2.008571,2.008571,-0.707107,0.707107,-28.36519,-365.4803)"
       gradientUnits="userSpaceOnUse" />
    <radialGradient
       inkscape:collect="always"
       xlink:href="#linearGradient3096"
       id="radialGradient2256"
       gradientUnits="userSpaceOnUse"
       gradientTransform="matrix(2,1.978403,-0.695664,0.703258,-2290.309,-1710.978)"
       cx="554.5"
       cy="554.49976"
       fx="554.5"
       fy="554.49976"
       r="95.5" />
    <radialGradient
       inkscape:collect="always"
       xlink:href="#linearGradient3096"
       id="radialGradient2264"
       cx="293.41104"
       cy="296.96429"
       fx="293.41104"
       fy="296.96429"
       r="131.29567"
       gradientTransform="matrix(2.008096,1.981452,-0.693012,0.702331,122.6116,-278.6278)"
       gradientUnits="userSpaceOnUse" />
    <radialGradient
       inkscape:collect="always"
       xlink:href="#linearGradient3096"
       id="radialGradient2266"
       cx="34.876118"
       cy="34.864536"
       fx="34.876118"
       fy="34.864536"
       r="389.79581"
       gradientTransform="matrix(2.002727,2.002744,-0.707115,0.707109,202.2805,152.9587)"
       gradientUnits="userSpaceOnUse" />
    <linearGradient
       inkscape:collect="always"
       xlink:href="#linearGradient3124"
       id="linearGradient3132"
       gradientUnits="userSpaceOnUse"
       x1="1141.3782"
       y1="198.28079"
       x2="1102.9924"
       y2="159.89499"
       gradientTransform="translate(-19.94249,-1.26069)" />
    <radialGradient
       inkscape:collect="always"
       xlink:href="#linearGradient3090"
       id="radialGradient3135"
       gradientUnits="userSpaceOnUse"
       gradientTransform="matrix(1,0,0,1.001605,-19.94249,-1.69839)"
       cx="1028.1614"
       cy="272.71011"
       fx="1028.1614"
       fy="272.71011"
       r="259.01355" />
    <radialGradient
       inkscape:collect="always"
       xlink:href="#linearGradient3090"
       id="radialGradient5760"
       gradientUnits="userSpaceOnUse"
       gradientTransform="matrix(1,0,0,1.001605,-19.94249,-1.69839)"
       cx="1028.1614"
       cy="272.71011"
       fx="1028.1614"
       fy="272.71011"
       r="259.01355" />
    <linearGradient
       inkscape:collect="always"
       xlink:href="#linearGradient3124"
       id="linearGradient5762"
       gradientUnits="userSpaceOnUse"
       gradientTransform="translate(-19.94249,-1.26069)"
       x1="1141.3782"
       y1="198.28079"
       x2="1102.9924"
       y2="159.89499" />
    <radialGradient
       inkscape:collect="always"
       xlink:href="#linearGradient3096"
       id="radialGradient5775"
       gradientUnits="userSpaceOnUse"
       gradientTransform="matrix(2.002727,2.002744,-0.707115,0.707109,202.2805,152.9587)"
       cx="34.876118"
       cy="34.864536"
       fx="34.876118"
       fy="34.864536"
       r="389.79581" />
    <radialGradient
       inkscape:collect="always"
       xlink:href="#linearGradient3096"
       id="radialGradient5779"
       gradientUnits="userSpaceOnUse"
       gradientTransform="matrix(2.002727,2.002744,-0.707115,0.707109,202.2805,152.9587)"
       cx="34.876118"
       cy="34.864536"
       fx="34.876118"
       fy="34.864536"
       r="389.79581" />
    <radialGradient
       inkscape:collect="always"
       xlink:href="#linearGradient3096"
       id="radialGradient5783"
       gradientUnits="userSpaceOnUse"
       gradientTransform="matrix(2.002727,2.002744,-0.707115,0.707109,202.2805,152.9587)"
       cx="34.876118"
       cy="34.864536"
       fx="34.876118"
       fy="34.864536"
       r="389.79581" />
    <radialGradient
       inkscape:collect="always"
       xlink:href="#linearGradient6681"
       id="radialGradient6687"
       cx="637.79718"
       cy="637.78558"
       fx="637.79718"
       fy="637.78558"
       r="389.79584"
       gradientTransform="matrix(1,0,0,1.000008,0,-0.00528946)"
       gradientUnits="userSpaceOnUse" />
    <radialGradient
       inkscape:collect="always"
       xlink:href="#linearGradient6681"
       id="radialGradient6741"
       cx="637.79718"
       cy="637.78558"
       fx="637.79718"
       fy="637.78558"
       r="389.79584"
       gradientTransform="matrix(1,0,0,1.000008,0,-0.00528946)"
       gradientUnits="userSpaceOnUse" />
    <radialGradient
       inkscape:collect="always"
       xlink:href="#linearGradient6681"
       id="radialGradient6761"
       cx="538.76447"
       cy="637.76422"
       fx="538.76447"
       fy="637.76422"
       r="290.73553"
       gradientTransform="matrix(1,0,0,1.340516,-566.9266,-217.1692)"
       gradientUnits="userSpaceOnUse" />
    <radialGradient
       inkscape:collect="always"
       xlink:href="#linearGradient6681"
       id="radialGradient3140"
       cx="538.75067"
       cy="637.77179"
       fx="538.75067"
       fy="637.77179"
       r="290.74933"
       gradientTransform="matrix(1,0,0,1.340642,0,-217.2518)"
       gradientUnits="userSpaceOnUse" />
    <radialGradient
       inkscape:collect="always"
       xlink:href="#linearGradient3096"
       id="radialGradient3648"
       gradientUnits="userSpaceOnUse"
       gradientTransform="matrix(2.002727,2.002744,-0.707115,0.707109,202.2805,152.9587)"
       cx="34.876118"
       cy="34.864536"
       fx="34.876118"
       fy="34.864536"
       r="389.79581" />
    <radialGradient
       inkscape:collect="always"
       xlink:href="#linearGradient3096"
       id="radialGradient3650"
       gradientUnits="userSpaceOnUse"
       gradientTransform="matrix(2.008096,1.981452,-0.693012,0.702331,122.6116,-278.6278)"
       cx="293.41104"
       cy="296.96429"
       fx="293.41104"
       fy="296.96429"
       r="131.29567" />
    <radialGradient
       inkscape:collect="always"
       xlink:href="#linearGradient3066"
       id="radialGradient3652"
       gradientUnits="userSpaceOnUse"
       gradientTransform="matrix(2.008571,2.008571,-0.707107,0.707107,-28.36519,-365.4803)"
       cx="300.64514"
       cy="88.046616"
       fx="300.64514"
       fy="88.046616"
       r="124.01708" />
    <radialGradient
       inkscape:collect="always"
       xlink:href="#linearGradient3066"
       id="radialGradient3654"
       gradientUnits="userSpaceOnUse"
       gradientTransform="matrix(2,2,-0.707107,0.707107,382.5498,91.29682)"
       cx="120.88493"
       cy="411.30447"
       fx="120.88493"
       fy="411.30447"
       r="120.19545" />
    <radialGradient
       inkscape:collect="always"
       xlink:href="#linearGradient3066"
       id="radialGradient3656"
       gradientUnits="userSpaceOnUse"
       gradientTransform="matrix(2.008844,2.008851,-0.707111,0.707108,10.14858,-648.5869)"
       cx="488.58511"
       cy="410.76462"
       fx="488.58511"
       fy="410.76462"
       r="120.19928" />
    <radialGradient
       inkscape:collect="always"
       xlink:href="#linearGradient6681"
       id="radialGradient3658"
       gradientUnits="userSpaceOnUse"
       gradientTransform="matrix(1,0,0,1.340642,0,-217.2518)"
       cx="538.75067"
       cy="637.77179"
       fx="538.75067"
       fy="637.77179"
       r="290.74933" />
  </defs>
  <sodipodi:namedview
     id="base"
     pagecolor="#ffffff"
     bordercolor="#666666"
     borderopacity="1.0"
     inkscape:pageopacity="0.0"
     inkscape:pageshadow="2"
     inkscape:zoom="0.35355339"
     inkscape:cx="781.42507"
     inkscape:cy="766.05397"
     inkscape:document-units="cm"
     inkscape:current-layer="g5756"
     gridtolerance="10000"
     showgrid="false"
     inkscape:grid-bbox="true"
     inkscape:grid-points="true"
     inkscape:window-width="1920"
     inkscape:window-height="1019"
     inkscape:window-x="0"
     inkscape:window-y="28"
     showguides="true"
     inkscape:guide-bbox="true"
     inkscape:snap-bbox="true"
     inkscape:window-maximized="0">
    <inkscape:grid
       id="GridFromPre046Settings"
       type="xygrid"
       originx="0px"
       originy="0cm"
       spacingx="1cm"
       spacingy="1cm"
       color="#0000ff"
       empcolor="#0000ff"
       opacity="0.2"
       empopacity="0.4"
       empspacing="8"
       units="cm"
       visible="true"
       enabled="true"
       snapvisiblegridlinesonly="true" />
  </sodipodi:namedview>
  <metadata
     id="metadata7">
    <rdf:RDF>
      <cc:Work
         rdf:about="">
        <dc:format>image/svg+xml</dc:format>
        <dc:type
           rdf:resource="http://purl.org/dc/dcmitype/StillImage" />
        <dc:title />
        <dc:date>Wed 12 Apr 2006</dc:date>
        <dc:creator>
          <cc:Agent>
            <dc:title>Dominic Fandrey</dc:title>
          </cc:Agent>
        </dc:creator>
        <dc:description>Copyright (c) 2006

Dominic Fandrey. All rights reserved.

Redistribution and use in source and binary forms, with or without modification, are permitted provided that the following conditions are met:

1. Redistributions of source code must retain the above copyright notice and this list of conditions.
2. Redistributions in binary form must reproduce the above copyright notice and this list of conditions in the documentation and/or other materials provided with the distribution.
3. The name of the creator may not be used to endorse or promote products and artwork derived from this artwork without specific prior written permission.</dc:description>
        <dc:contributor>
          <cc:Agent>
            <dc:title>Many thanks to the developers of Inkscape and to the members of bsdforen.de (www.bsdforen.de) who provided lots of useful feedback and inspiration.</dc:title>
          </cc:Agent>
        </dc:contributor>
      </cc:Work>
    </rdf:RDF>
  </metadata>
  <g
     inkscape:label="wheels"
     inkscape:groupmode="layer"
     id="layer1"
     transform="translate(70.866138,70.866176)">
    <path
       style="fill:#000000;fill-opacity:0.3764706;fill-rule:nonzero;stroke:none;stroke-width:1.0629921;stroke-linecap:round;stroke-linejoin:round;stroke-miterlimit:4;stroke-dasharray:none;stroke-opacity:1"
       d="m 947.91602,13.769531 c -7.93202,1.330635 -15.55068,4.231194 -23.53707,5.537507 -6.76657,2.333274 -14.97651,2.149921 -20.877,6.036712 -2.48117,2.455862 1.36826,5.836641 0.375,7.816406 -14.49564,9.798265 -27.08101,22.553703 -39.64812,34.787651 C 810.36758,122.45816 770.55022,192.14251 756.8418,267.94922 653.60681,237.17872 537.9191,251.43254 445.45117,306.79883 c -91.11983,53.64981 -159.20495,145.25422 -182.93555,248.4414 -23.63585,99.175 -7.00095,207.37854 46.4088,294.35 12.41141,20.44385 26.64365,39.78553 42.53456,57.66172 -65.01924,67.22013 -130.66324,134.11695 -189.73329,206.71955 -6.31584,8.4559 -14.00436,16.9932 -16.45616,27.4601 0.5092,6.0058 8.63691,6.5206 12.25195,2.8985 25.43188,-15.1736 46.7044,-36.1372 69.18822,-55.1798 54.12186,-47.9726 106.27475,-98.10626 158.05592,-148.57999 83.87144,75.34609 201.38299,110.87449 312.99699,95.68159 102.29634,-13.4685 198.26034,-68.95091 260.7832,-151.06654 63.53299,-82.45323 92.10509,-190.7463 77.30379,-293.80303 -2.6486,-19.22399 -6.837,-38.31036 -12.2617,-56.88233 93.6495,-16.98369 177.3456,-73.63545 235.8125,-147.42773 4.1999,3.46854 8.2792,-2.06027 8.4785,-6.11524 2.3801,-13.747 7.3724,-26.98362 8.8867,-40.90234 -2.3392,-5.11633 -9.4206,-1.32853 -13.0468,0.66601 -11.4431,5.99364 -24.7368,8.872 -35.1206,16.59609 -1.4625,3.21619 6.537,6.84926 1.2397,9.32774 -50.94,55.03177 -116.8914,98.29489 -190.9045,114.01953 -10.972,1.91736 -22.144,4.81189 -33.2615,4.72461 -3.0168,-3.42888 -3.6104,-8.94166 -6.31108,-12.8781 -15.67317,-31.90142 -35.66706,-61.67874 -59.27684,-88.24885 56.57418,-58.43636 113.04502,-117.06883 165.85742,-178.9668 2.6249,4.182 10.5262,6.7376 12.2012,0.38867 2.9805,-14.68662 10.9467,-28.37378 12.6751,-43.25036 -4.1397,-4.58235 -11.107,0.0505 -15.9036,1.72302 -11.0655,3.99624 -23.3567,6.02582 -33.3619,12.21377 -1.7416,3.89438 3.9862,6.5078 4.5806,9.63975 -18.6273,14.31489 -35.706,30.81879 -53.3767,46.38559 -42.70231,38.74054 -84.24191,78.73738 -125.64087,118.85855 -30.18492,-26.86943 -64.54651,-49.04795 -101.49218,-65.42774 7.12852,-77.94975 46.74151,-150.38476 100.6847,-206.160705 6.74588,-6.821766 13.75407,-14.042345 20.9735,-19.944762 3.28561,4.81538 9.25357,0.526261 10.32227,-3.841797 4.34627,-13.542437 12.81893,-25.866316 15.60646,-39.775082 -0.51415,-2.10404 -3.45755,-2.246108 -5.29396,-2.334293 z M 646.23438,302.73438 c 2.67687,-0.14209 6.76813,3.36936 6.88281,4.31054 -4.2592,-2.20602 -9.94101,-2.39194 -14.05664,-0.55469 2.00718,-1.72079 4.28671,-4.13309 7.17383,-3.75585 z m 88.54101,11.85351 c 6.88678,2.1493 8.25146,10.94559 9.05664,17.12695 0.60656,14.2939 -4.02625,31.38924 6.47656,43.36328 2.22882,3.07217 7.08143,3.46887 9.08984,5.84277 7.07464,28.59094 19.85028,55.884 38.08204,79.07325 -19.12435,19.15495 -38.2487,38.3099 -57.37305,57.46484 4.27328,-12.75822 -4.14495,-25.2384 -12.83984,-33.87695 -4.42325,-5.68323 -8.41755,-13.22288 -6.54688,-20.49805 8.6897,-8.71586 21.67175,-7.68651 32.83399,-9.32421 10.86458,-2.29307 22.76735,-12.13095 19.74219,-24.35157 -4.0204,-13.92243 -20.36826,-18.5322 -33.33008,-18.07422 -7.37569,-0.88056 -16.08164,-3.16394 -20.03711,-10.00195 0.0209,-12.38151 9.91442,-20.6917 16.64258,-29.85156 6.02726,-9.29428 7.45532,-24.61627 -3.28907,-31.10352 -7.58716,-4.56395 -17.55073,-2.53728 -24.58008,1.42188 5.63772,-10.51653 10.29594,-23.76696 22.85352,-27.82031 1.01896,-0.31107 2.17721,0.54268 3.21875,0.60937 z m -174.91016,-0.41211 c 12.37182,3.94312 17.33942,16.89469 22.7168,27.40625 -9.39088,-5.60412 -24.65743,-5.97019 -30.1582,5.15039 -6.05272,12.66543 2.16702,26.67449 11.35742,35.38867 4.638,5.82908 9.00134,13.54284 7.0918,21.18946 -8.66424,8.68403 -21.59869,7.6841 -32.73828,9.32422 -10.91871,2.25562 -22.94853,12.16258 -19.81055,24.43554 4.06229,13.88551 20.41942,18.44254 33.35742,18.00781 7.38195,0.88654 16.13569,3.17324 19.97852,10.02344 0.0448,12.49319 -10.138,20.85137 -16.80274,30.10352 -6.04196,9.4561 -7.13685,25.09099 4.06641,31.24609 12.81941,6.26447 27.15388,-2.00883 35.9707,-11.39648 5.86456,-4.43045 13.52291,-8.98061 21.02539,-6.91602 5.11868,5.23211 7.34415,12.91279 7.98828,19.6543 -6.01061,-9.86104 -21.36976,-16.41288 -30.73828,-7.37695 -9.38689,9.17977 -7.92378,23.78988 -3.81216,35.08483 1.69103,6.958 3.69849,16.40983 -2.21714,21.79993 -9.42165,4.50881 -19.52979,-2.08661 -28.11523,-5.77734 -10.91195,-5.53669 -27.6864,-4.65058 -33.14062,8.00976 -4.71806,12.87938 5.87075,25.9186 16.6015,31.90837 6.86735,4.49326 15.34445,11.23443 14.21685,20.2557 -5.97388,10.12063 -19.06608,10.45843 -28.96289,14.25585 -11.51267,3.73394 -21.62542,17.29963 -15.10742,29.20899 3.8032,6.80777 12.47261,10.11065 19.21485,11.11914 -6.66194,2.79905 -14.81092,4.76526 -21.54297,1.47461 -6.62114,-10.32964 -2.39537,-22.69488 -0.88477,-33.74609 0.7783,-11.28558 -5.56811,-25.78461 -18.45117,-26.08204 -14.39716,0.39733 -23.04399,14.81005 -25.98633,27.40235 -2.70405,6.86373 -7.08499,14.48133 -14.46094,16.88476 -12.18777,-2.68672 -17.79774,-14.71081 -24.80468,-23.60156 -7.29973,-7.85583 -20.67713,-13.64418 -30.07813,-5.93945 -10.14288,8.67918 -7.83881,24.64818 -1.83789,35.07617 3.73687,7.69536 7.97431,17.84467 3.33594,26.00977 -11.13196,6.74265 -23.92793,1.1283 -35.83399,0.62109 -11.15548,-0.27842 -24.83131,7.37132 -23.68554,19.94531 0.66179,8.89077 7.61842,15.88503 15.11719,19.90039 -12.0976,0.23774 -26.4582,3.23369 -35.99024,-6.41211 -4.07221,-3.90389 0.73212,-9.82127 3.37305,-13.34765 10.81735,-12.02262 30.04849,-13.59732 38.56836,-28.26368 7.02023,-10.20323 -0.45535,-24.14428 -11.20313,-28.00195 -13.92792,-6.60472 -32.85061,-4.0288 -42.77734,-17.85547 -4.60742,-4.81254 1.95851,-9.68073 5.3789,-12.64843 13.91204,-9.71194 34.05764,-5.55083 46.21094,-18.58204 9.12409,-9.41821 3.15962,-24.99177 -6.91797,-31.16406 -11.30335,-8.21615 -28.12407,-11.43571 -33.85156,-25.46094 -2.24231,-3.82501 -0.23553,-7.62646 3.63867,-9.33398 15.23934,-9.67341 33.8828,0.47929 49.95313,-6.2793 10.1768,-3.47991 15.63503,-16.03393 10.41015,-25.70117 -6.45372,-15.87991 -26.38027,-21.9998 -30.63086,-39.05664 -1.66212,-4.09295 -0.79408,-10.02691 4.60938,-10.36133 14.86968,-5.50734 29.0094,5.60903 43.67187,6.67969 10.44077,1.57329 22.89653,-4.45391 23.84766,-15.91602 1.57191,-15.97662 -11.83388,-27.62976 -17.69141,-41.16406 -1.91905,-5.68276 -3.76276,-13.86493 0.91602,-18.42187 11.45839,-4.50576 22.76506,3.65878 31.91439,9.7197 9.58107,6.33375 23.25118,12.98302 33.96452,5.38186 10.73793,-8.1085 8.432,-23.12548 4.56582,-34.21852 -3.73817,-10.66594 -8.43635,-23.62612 -1.64981,-34.03148 5.16159,-4.11779 12.24318,-0.0109 17.10547,2.86328 12.46031,9.11172 19.98088,26.14621 36.66797,28.45508 12.82336,1.86157 21.76626,-11.71359 21.46094,-23.32031 1.1839,-13.76077 -4.21764,-29.92526 5.80078,-41.52344 1.42217,-1.45075 3.76684,-2.53717 5.78515,-2.08594 z m 253.93555,33.06836 c 8.57309,1.23611 9.56403,11.75942 8.38867,18.6543 -0.83347,5.03814 -2.74264,9.80412 -4.31836,14.63672 -3.97314,-10.30404 -7.53293,-21.04825 -8.99804,-32.10157 1.61577,-0.47744 3.2175,-1.16979 4.92773,-1.18945 z m -140.92383,7.23633 c 1.59249,1.85134 4.65995,3.56879 6.25586,4.35547 -3.42777,1.07043 -5.53561,-3.21809 -6.25586,-4.35547 z m -54.52734,0.68164 c -1.48657,1.89913 -3.1441,4.45258 -5.9082,3.76562 2.06479,-0.77608 4.74067,-2.73857 5.9082,-3.76562 z m 28.4375,64.29883 c 11.06756,0.27928 17.26273,15.78827 8.89648,23.39844 -7.53466,8.33666 -23.86355,2.66993 -23.57812,-8.99219 -0.68697,-7.93212 6.7821,-15.12784 14.68164,-14.40625 z m 284.98828,49.10937 c 5.87379,-0.29648 11.91182,3.18042 12.58789,9.34375 -0.0995,2.95769 -1.06732,6.41685 -4.68164,4.20703 -10.12117,-2.15576 -19.939,-5.05804 -29.54102,-8.84765 7.0178,-2.18703 14.08908,-5.54806 21.63477,-4.70313 z m -98.26367,27.00977 c 23.1763,17.81858 50.45539,29.77367 78.66406,37.04297 3.54522,12.27416 18.33687,15.41452 29.54102,14.70703 11.29504,-0.10391 25.55637,-3.25578 34.35742,5.91797 1.86536,4.30412 2.39565,9.25861 -1.34766,12.75 -10.90941,13.42007 -31.9995,14.51029 -40.35547,30.62304 -5.4764,10.13412 1.27667,22.66574 11.49024,26.48243 13.88515,7.15345 32.70683,3.94984 42.80664,17.67968 0.96343,5.32498 -0.17778,11.21064 -5.63477,13.55274 -13.96682,9.25184 -34.03523,5.20204 -45.84765,18.38672 -7.06356,8.13298 -5.10987,21.02983 3.17383,27.51172 11.26114,11.08406 30.86355,12.6901 37.51953,28.40039 1.60562,6.65486 -4.32311,12.30094 -10.65625,13.03515 -8.10015,2.37732 -16.59718,0.43909 -24.94141,0.50781 9.20069,-5.56263 15.99448,-18.81997 8.67187,-28.45898 -8.21312,-10.84645 -23.82058,-10.60734 -35.70898,-7.13672 -7.24225,1.1487 -15.82039,0.95153 -21.60742,-3.91992 -4.19259,-11.98357 3.92943,-22.93928 7.95703,-33.60938 3.44308,-10.54378 0.89163,-25.75858 -11.18359,-29.26367 -14.10408,-3.49768 -26.26328,8.39117 -32.38086,19.85352 -4.46628,5.94574 -10.79128,12.38318 -18.62696,12.32422 -10.53191,-6.06198 -13.05375,-18.65675 -17.32617,-28.95508 -5.00047,-9.97834 -17.53295,-19.15033 -28.70898,-13.17578 -12.48853,7.48592 -12.74024,24.51134 -8.95508,36.97656 1.07146,7.3326 1.10439,16.45764 -4.45703,21.93945 -7.04634,1.74496 -14.42238,0.0227 -20.92774,-2.83789 10.87364,-0.69762 23.47949,-8.9628 21.91407,-21.16406 -2.06045,-13.9838 -16.98606,-20.97886 -29.60352,-22.75977 -6.21591,-1.93232 -13.24289,-5.01999 -16.58008,-10.80273 -1.53108,-8.98927 7.26063,-15.32672 13.69832,-19.82344 10.59476,-6.11082 20.82017,-17.73175 17.47746,-30.83086 -1.32631,-4.9955 -5.40456,-9.00844 -10.18554,-10.80468 25.2233,-25.26303 50.44661,-50.52605 75.66992,-75.78907 0.69792,0.54688 1.39583,1.09375 2.09375,1.64063 z m -154.70117,11.94726 c 11.89072,0.1559 19.63048,9.96859 28.43945,16.27344 6.68634,4.01155 15.10244,6.39787 22.73047,3.80078 -9.42904,9.44401 -18.85807,18.88802 -28.28711,28.33203 3.93175,-11.49182 5.97915,-26.29202 -3.63086,-35.63086 -8.56849,-8.36299 -22.37792,-3.57483 -28.96875,4.86524 -2.54392,4.00099 -0.66863,-2.15457 -0.40625,-3.77735 1.56661,-5.13975 3.80996,-12.04917 9.21094,-13.86328 l 0.91211,0 z m 58.92187,216.61719 c 5.76152,4.30932 11.50573,10.40093 12.17969,17.79102 -5.29468,10.87552 -17.94638,13.52223 -28.14063,17.5332 -10.29802,4.77339 -20.05012,17.244 -14.27734,28.7793 6.97702,12.56077 23.96888,13.28195 36.27539,9.49609 7.45665,-1.34563 16.31749,-1.23013 22.38477,3.70898 3.97308,11.46582 -3.09242,22.26665 -7.48828,32.32813 -3.90268,10.6533 -1.99478,26.36354 10.23828,30.44531 13.86346,3.96378 26.37657,-7.60628 32.43359,-19.0039 4.42815,-6.35192 11.00133,-12.88942 19.08984,-13.00391 10.68558,6.11339 13.00429,18.94174 17.51172,29.27734 5.02503,9.89817 17.60619,18.84978 28.625,12.77149 8.94242,-5.1621 11.79865,-16.45108 10.86133,-26.125 5.70337,11.33115 17.61175,21.93403 14.33594,35.87109 -2.17192,5.79202 -8.80394,7.0752 -14.11914,5.31055 -15.87968,-3.84171 -27.20469,-20.11478 -44.50781,-19.23047 -10.81045,0.75436 -18.57331,11.3753 -17.19987,21.87083 0.22494,15.92505 12.99343,31.01692 6.27994,46.83815 -4.09174,7.4629 -13.6229,3.77175 -18.94809,-0.0925 -12.21829,-9.46094 -20.32441,-26.50381 -37.24331,-28.3665 -12.23271,-0.83336 -20.65124,11.78755 -20.4668,23.00977 -1.36129,13.86179 4.44086,30.18962 -5.82422,41.73242 -6.65267,5.28385 -14.21947,-1.7487 -18.39844,-6.9336 -8.67756,-11.7319 -11.8906,-28.90449 -26.29882,-35.4082 -9.86126,-4.19327 -21.21016,1.64194 -25.09766,11.23438 -7.3509,13.80486 -4.18261,32.99721 -17.70898,43.30664 -6.564,5.14852 -12.88418,-2.92679 -15.66993,-8.36524 -6.80758,-13.66765 -4.45741,-31.58411 -16.48437,-42.63672 -7.96299,-7.61525 -21.18966,-5.16214 -27.69922,3.12305 -11.32675,11.55765 -12.85286,31.48462 -29.25586,38.0332 -7.4153,2.6508 -10.99501,-6.95248 -12.40234,-12.33203 -3.16357,-15.35936 4.31492,-32.98783 -5.59766,-46.74414 -6.37564,-8.46101 -19.01025,-9.23718 -27.14062,-2.94336 -13.51076,8.35459 -20.20207,26.45444 -37.28711,28.86133 -8.2128,1.57938 -9.35134,-8.63719 -9.31836,-14.5332 0.55035,-15.01806 11.19489,-28.74458 7.55664,-44.11524 -2.1616,-10.88019 -14.60753,-16.86882 -24.79883,-13.18164 0.96044,-2.42483 8.39274,-8.6159 11.8542,-12.49617 6.6485,-6.65789 13.29636,-13.31641 19.94463,-19.97453 7.50768,9.11098 13.27828,21.39481 25.77343,24.55664 9.97481,3.1015 21.35542,-3.92894 22.51758,-14.39844 2.73587,-12.16623 -4.95599,-22.95322 -8.77343,-33.81445 -1.20759,-5.10866 -2.26647,-11.4239 0.86523,-15.94141 10.64497,-6.19901 22.90868,-1.79529 34.12305,-0.53125 11.20661,0.63425 25.41343,-6.01834 25.39062,-18.77539 -0.21319,-10.74 -9.32176,-18.84782 -18.60156,-22.72461 4.38663,-5.87111 12.67651,-3.68054 17.76172,-8.62109 9.31195,-6.54952 16.17695,-19.08542 28.66992,-19.50391 8.45996,2.26885 9.75791,13.14404 10.43214,20.47196 0.34387,12.3032 4.37299,27.70894 17.64403,31.655 12.55799,3.33049 22.90561,-8.54599 24.77149,-19.9668 2.33137,-10.39916 0.0163,-23.82642 9.1875,-31.38281 8.36888,-3.41129 16.23841,4.52873 21.65625,9.89257 8.05155,8.89502 20.85654,17.45181 33.10937,12.11524 11.22568,-5.40276 11.68427,-18.81319 7.27539,-28.86719 z M 462.8457,738.35742 c 11.30402,0.39038 17.11971,16.64236 8.17774,23.91992 -7.68818,7.53468 -22.72959,1.96062 -23.06446,-9.01757 -0.78688,-8.21524 6.67432,-15.73672 14.88672,-14.90235 z m 368.06836,0.0156 c 11.21233,0.34898 17.31669,16.36574 8.48828,23.75976 -7.83039,7.91733 -23.71828,1.87278 -23.27734,-9.67383 -0.28963,-7.86036 6.91954,-14.80419 14.78906,-14.08593 z m 81.75782,20.40625 c -0.92182,5.9277 0.86279,12.12401 4.42382,16.90234 -3.57932,-3.79539 -7.38761,-8.63344 -7.07812,-14.04492 0.54032,-0.72604 3.07637,-4.84027 2.6543,-2.85742 z m 29.69335,44.04492 c 2.46697,4.44264 4.67383,10.62179 0.19336,14.66211 0.0792,2.33376 -7.02789,4.16013 -5.15039,2.62695 4.79798,-4.19329 6.95004,-11.50828 4.95703,-17.28906 z m -592.92968,10.10156 c 1.36768,3.9001 4.12571,7.29865 7.66211,9.4375 -4.30033,-0.75486 -9.44542,-3.22149 -7.85352,-8.49023 0.21382,3.4072 0.0676,-1.52962 0.19141,-0.94727 z m 56.25195,1.7832 c 2.49935,-0.11156 7.93374,0.6956 7.91992,2.88282 -3.0865,-1.87052 -7.34183,-2.62526 -10.4707,-2.74219 0.84796,-0.0793 1.69873,-0.13969 2.55078,-0.14063 z m 477.26758,0.48829 c -1.89666,0.0218 -6.60756,5.53372 -5.56055,3.37109 0.63479,-3.12795 3.79912,-3.45131 6.38672,-3.73242 l -0.82617,0.36133 z"
       id="path4196"
       inkscape:connector-curvature="0" />
    <g
       id="g5756"
       transform="translate(-1.584137,-3.130221)"
       style="">
      <path
         sodipodi:nodetypes="cssscccccsccscccccssccc"
         id="path4917"
         d="m 825.03368,483.98339 c 99.98718,80.92511 269.44092,54.00085 389.88112,-65.27478 0.4954,-0.4906 0.9869,-0.9869 1.4805,-1.4804 0.4886,-0.4887 0.9727,-0.9681 1.4584,-1.4585 12.5357,-12.6569 24.0384,-25.8632 34.5156,-39.4654 l 3.9555,3.3366 10.4077,-43.5091 -41.0343,17.7882 5.6126,4.7287 c -5.8713,6.695 -12.0227,13.2602 -18.4511,19.6886 -110.5999,110.59983 -263.68794,139.35569 -352.69164,69.8488 l -28.2843,-28.2842 c -69.50686,-89.0038 -40.7509,-242.0918 69.8488,-352.6916 6.4209,-6.4209 12.9794,-12.5639 19.6665,-18.4291 l 4.0216,4.7731 17.7882,-41.0343 -43.4871,10.3856 4.0217,4.8171 c -13.5937,10.4724 -26.7941,21.9654 -39.4433,34.4935 -0.4904,0.4858 -0.9698,0.9698 -1.4585,1.4585 -0.4954,0.4956 -0.9881,0.9832 -1.4804,1.4805 -119.55412,120.726 -146.30783,290.7183 -64.67818,390.61024 l 28.3506,28.21794 z"
         style="fill:url(#radialGradient5760);fill-opacity:1;fill-rule:nonzero;stroke:none;stroke-width:1.0629921;stroke-linecap:round;stroke-linejoin:round;stroke-miterlimit:4;stroke-opacity:1;stroke-dasharray:none" />
      <path
         sodipodi:nodetypes="csccccccccccssc"
         style="fill:url(#linearGradient5762);fill-opacity:1;stroke:none;stroke-width:1.0629921;stroke-linecap:round;stroke-linejoin:round;stroke-miterlimit:4;stroke-opacity:1;stroke-dasharray:none"
         d="m 143.40482,1137.5048 c 8.7244,6.8044 138.19404,-110.0866 289.82537,-261.71792 3.5678,-3.5678 7.12263,-7.10883 10.6508,-10.6508 L 860.16806,448.18611 c 106.0717,-106.1034 195.53624,-201.4469 239.33354,-253.9176 l 7.292,7.2921 14.1421,-42.4264 -42.4264,14.1421 7.2921,7.2921 c -52.4708,43.7972 -147.81424,133.2617 -253.91764,239.3335 l -416.28704,416.9499 -10.6508,10.65079 c -152.226,152.22592 -269.4359,282.1074 -261.6295,289.9138 0.0229,0.023 0.0438,0.045 0.0663,0.066 0.004,0 0.0178,0.019 0.0221,0.022 z"
         id="path1339" />
    </g>
    <g
       id="g3638"
       style="">
      <path
         id="path4055"
         d="m 634.19217,248.00467 c -191.23188,1.58284 -357.14318,143.95978 -382.8125,338.9375 -28.08265,213.30896 122.25356,409.1986 335.5625,437.28123 0.83325,0.1097 1.63605,0.2083 2.46875,0.3125 212.33804,26.5864 406.83954,-123.36801 434.81248,-335.84373 28.0827,-213.30896 -122.22228,-409.2611 -335.53123,-437.34375 -18.33124,-2.41335 -36.52093,-3.49256 -54.5,-3.34375 z m 1.375,42.90625 c 0.74687,-0.005 1.47077,0 2.21875,0 1.33797,0 2.66559,0.0161 4,0.0312 4.21011,2.69757 11.9304,9.07166 14.375,20.78125 3.42381,16.40002 6.44946,34.33858 19.78125,36.09375 13.33178,1.75517 20.94436,-14.79546 28.5,-29.75 5.4249,-10.7372 14.60489,-14.8808 19.34375,-16.375 2.66492,0.6805 5.32885,1.3519 7.96875,2.09375 0.007,0.008 -0.007,0.0236 0,0.0312 3.39854,3.8348 8.86923,11.86252 8.21875,23.46875 -0.93751,16.72735 -2.67325,34.85411 9.75,40 12.42326,5.14588 24.08129,-8.85432 35.25,-21.34375 7.72454,-8.63799 17.21948,-10.49102 22.34375,-10.8125 0.008,0.004 0.0234,-0.004 0.0312,0 2.67147,1.50057 5.31032,3.05634 7.9375,4.625 2.25872,4.73718 5.09157,13.64745 1.59375,24.28125 -5.23489,15.91472 -11.57433,32.97032 -0.90625,41.15625 10.6681,8.18591 25.54185,-2.32681 39.5625,-11.5 9.37319,-6.13251 18.68741,-5.70463 23.84375,-4.75 0.0105,0.002 0.0208,-0.002 0.0312,0 2.41186,2.34181 4.78174,4.71456 7.125,7.125 0.88053,5.24726 1.06069,14.27578 -4.875,23.34375 -9.17556,14.01756 -19.71715,28.86314 -11.53125,39.53125 8.18589,10.66809 25.27038,4.3568 41.1875,-0.875 10.50593,-3.45318 19.3122,-0.74118 24.09375,1.5 0.008,0.004 0.0231,-0.004 0.0312,0 1.77231,2.95145 3.50137,5.92992 5.1875,8.9375 0.004,0.008 -0.004,0.0234 0,0.0312 -0.52922,5.31398 -2.71086,13.99835 -10.71875,21.15625 -12.49095,11.1651 -26.52085,22.79549 -21.375,35.21875 5.14587,12.42328 23.30241,10.71513 40.03125,9.78125 10.96425,-0.61205 18.75199,4.22507 22.8125,7.625 0.96922,3.38879 1.88222,6.78849 2.75,10.21875 0.002,0.01 -0.002,0.0214 0,0.0312 -1.91784,5.00196 -6.29266,12.70861 -15.78125,17.5 -14.95506,7.55177 -31.53639,15.13695 -29.78125,28.46875 1.75517,13.33179 19.72447,16.41606 36.125,19.84375 10.60417,2.21626 16.84991,8.72761 19.9375,13.0625 0.0379,2.1103 0.0625,4.22445 0.0625,6.34375 0,1.52712 -0.0115,3.04003 -0.0312,4.5625 -3.17743,4.32811 -9.38591,10.53686 -19.6875,12.6875 -16.40004,3.4238 -34.33856,6.4807 -36.09375,19.8125 -1.75518,13.33179 14.79545,20.94434 29.75,28.5 9.76456,4.93347 14.10609,12.96043 15.9375,17.9375 -0.8479,3.42722 -1.73846,6.83245 -2.6875,10.21875 -4.14599,3.37761 -11.80407,7.94146 -22.46875,7.34375 -16.7274,-0.93751 -34.85409,-2.64201 -40,9.78125 -5.14589,12.42327 8.8543,24.05002 21.34375,35.21875 8.20669,7.3389 10.31535,16.29328 10.78125,21.5625 -1.68754,3.04955 -3.41166,6.06994 -5.1875,9.0625 -4.87259,2.19699 -13.49988,4.66357 -23.6875,1.3125 -15.91479,-5.23491 -32.97031,-11.57434 -41.15625,-0.90625 -8.18595,10.6681 2.32679,25.51057 11.5,39.53125 6.09198,9.31126 5.72239,18.59933 4.78125,23.78125 -0.002,0.0106 0.002,0.0207 0,0.0312 -2.33316,2.42543 -4.69156,4.79929 -7.09375,7.15625 -0.005,0.005 -0.026,-0.005 -0.0312,0 -5.24007,0.89274 -14.28258,1.13919 -23.375,-4.8125 -14.01757,-9.17559 -28.86313,-19.71716 -39.53125,-11.53125 -10.66813,8.18594 -4.35681,25.27036 0.875,41.1875 3.60421,10.96543 0.5007,20.07406 -1.78125,24.6875 -2.63691,1.59347 -5.28668,3.16286 -7.96875,4.6875 -5.21984,-0.40101 -14.38025,-2.39651 -21.875,-10.78125 -11.16515,-12.49094 -22.76422,-26.52087 -35.1875,-21.375 -12.42326,5.14589 -10.74639,23.27113 -9.8125,40 0.67154,12.0296 -5.2104,20.2175 -8.5625,23.875 -2.63193,0.75428 -5.28042,1.46305 -7.9375,2.15625 -0.01,0.003 -0.0216,-0.003 -0.0312,0 -4.85453,-1.62128 -13.59612,-5.85794 -18.84375,-16.25 -7.55179,-14.95506 -15.13694,-31.50516 -28.46875,-29.75 -13.33181,1.75518 -16.38482,19.72445 -19.8125,36.125 -2.52382,12.07579 -10.64686,18.48667 -14.75,21.03125 -1.93518,0.0319 -3.86977,0.0625 -5.8125,0.0625 -0.59215,0 -1.18979,0.003 -1.78125,0 -4.20077,-2.69524 -11.89716,-9.0934 -14.34375,-20.8125 -3.4238,-16.40002 -6.48072,-34.36983 -19.8125,-36.125 -13.33178,-1.75517 -20.94436,14.79546 -28.5,29.75 -5.83548,11.54984 -15.98636,15.54408 -20.3125,16.75 -2.08202,-0.52336 -4.15183,-1.06415 -6.21875,-1.625 -0.01,-0.0101 -0.0216,-0.0211 -0.0312,-0.0312 -3.26314,-3.43216 -9.63815,-11.81095 -8.9375,-24.3125 0.93749,-16.72737 2.642,-34.85411 -9.78125,-40 -12.42324,-5.14589 -24.05004,8.88556 -35.21875,21.375 -9.00233,10.06684 -20.43625,10.89639 -24.53125,10.84375 -1.61698,-0.90789 -3.2429,-1.81708 -4.84375,-2.75 -0.006,-0.0108 -0.0251,-0.0204 -0.0312,-0.0312 -2.22028,-3.93879 -6.56006,-13.9082 -2.53125,-26.15625 5.23491,-15.91477 11.60557,-33.00158 0.9375,-41.1875 -10.66809,-8.18593 -25.54184,2.35806 -39.5625,11.53125 -11.58509,7.57965 -23.1231,5.135 -26.78125,4.0625 -0.005,-0.005 -0.026,0.005 -0.0312,0 -1.19846,-1.17054 -2.38101,-2.37486 -3.5625,-3.5625 -1.12014,-4.15255 -3.02359,-15.18584 4.21875,-26.25 9.17557,-14.01755 19.71715,-28.86314 11.53125,-39.53125 -8.1859,-10.66807 -25.27038,-4.32555 -41.1875,0.90625 -13.67879,4.49609 -24.5075,-1.45503 -27.28125,-3.21875 -0.007,-0.0124 -0.0239,-0.0189 -0.0312,-0.0312 -0.70756,-1.19419 -1.43141,-2.39042 -2.125,-3.59375 -0.0944,-3.81139 0.52583,-15.55852 10.84375,-24.78125 12.49095,-11.16508 26.52086,-22.79549 21.375,-35.21875 -5.14587,-12.42326 -23.27115,-10.74637 -40,-9.8125 -15.16052,0.84629 -24.24195,-8.70341 -25.8125,-10.5 -0.009,-0.0103 -0.0227,-0.0214 -0.0312,-0.0312 -0.3108,-1.12423 -0.60653,-2.24623 -0.90625,-3.375 0.76967,-3.37577 4.27462,-15.02742 16.96875,-21.4375 14.95507,-7.55177 31.50514,-15.13695 29.75,-28.46875 -1.75515,-13.33179 -19.72447,-16.41606 -36.125,-19.84375 -14.77088,-3.08711 -21.08047,-14.53641 -22.1875,-16.78125 -0.007,-0.88336 0,-1.77134 0,-2.65625 0,-0.32531 -9e-4,-0.64365 0,-0.96875 1.6671,-3.13258 8.06873,-13.39242 21.90625,-16.28125 16.40004,-3.42379 34.36982,-6.44945 36.125,-19.78125 1.75518,-13.33178 -14.79545,-20.94434 -29.75,-28.5 -13.55256,-6.84733 -16.66203,-19.65777 -17.125,-22 0.29604,-1.13737 0.59898,-2.27344 0.90625,-3.40625 2.32354,-2.50524 11.19311,-10.89209 25.4375,-10.09375 16.72737,0.93751 34.8541,2.64201 40,-9.78125 5.1459,-12.42325 -8.88555,-24.08126 -21.375,-35.25 -10.96484,-9.80537 -10.97094,-22.46096 -10.8125,-25.40625 0.67889,-1.19069 1.36997,-2.38067 2.0625,-3.5625 0.003,-0.005 0.0285,0.005 0.0312,0 3.34904,-2.02403 13.77685,-7.22538 26.8125,-2.9375 15.91476,5.23493 33.00156,11.57435 41.1875,0.90625 8.18593,-10.6681 -2.35805,-25.54182 -11.53125,-39.5625 -7.59655,-11.61088 -5.13129,-23.15749 -4.0625,-26.78125 1.17638,-1.19384 2.36906,-2.38572 3.5625,-3.5625 4.15255,-1.12014 15.18583,-3.0236 26.25,4.21875 14.01758,9.17558 28.86314,19.71716 39.53125,11.53125 10.66812,-8.18591 4.35681,-25.27036 -0.875,-41.1875 -4.20997,-12.80832 0.72497,-23.11934 2.8125,-26.65625 1.61228,-0.95026 3.24617,-1.8877 4.875,-2.8125 4.5002,0.0433 15.29689,1.24331 23.90625,10.875 11.16514,12.49096 22.79547,26.52087 35.21875,21.375 12.42328,-5.14588 10.74638,-23.30238 9.8125,-40.03125 -0.72291,-12.94963 6.14424,-21.47037 9.28125,-24.65625 2.05462,-0.56914 4.11779,-1.12418 6.1875,-1.65625 4.55048,1.33757 14.23816,5.36842 19.875,16.53125 7.55178,14.95508 15.13693,31.5364 28.46875,29.78125 13.3318,-1.75517 16.41607,-19.72445 19.84375,-36.125 2.53061,-12.10822 10.68875,-18.53191 14.78125,-21.0625 0.008,-0.005 0.0228,0.005 0.0312,0 0.4293,-0.004 0.85158,-0.0285 1.28125,-0.0312 z"
         style="fill:url(#radialGradient3648);fill-opacity:1;fill-rule:nonzero;stroke:none;stroke-width:1.0629921;stroke-linecap:round;stroke-linejoin:round;stroke-miterlimit:4;stroke-opacity:1;stroke-dasharray:none" />
      <path
         id="path1415"
         d="m 678.03592,511.87967 c -8.01157,0.53607 -16.531,8.291 -20.65625,19.625 -0.0196,0.0538 -0.34118,0.96108 -0.34375,0.96875 -3.35659,8.56135 -9.23468,15.22436 -15.96875,19 -1.66777,-0.0634 -3.34046,-0.0654 -5,-0.0312 -0.73884,0.0152 -1.48223,0.0595 -2.21875,0.0937 -0.007,-0.004 -0.0242,0.004 -0.0312,0 -6.81665,-3.90802 -12.67051,-10.81297 -15.9375,-19.625 -0.009,-0.0265 -0.0753,-0.19929 -0.0937,-0.25 -5.01681,-13.78361 -16.56025,-22.25105 -25.75,-18.90625 -0.10769,0.0392 -0.20641,0.0829 -0.3125,0.125 -8.94729,3.54867 -12.20804,17.28417 -7.25,30.90625 0.0196,0.0539 0.34079,0.96121 0.34375,0.96875 2.93703,8.73143 2.74546,17.61596 0,24.84375 -0.003,0.008 0.003,0.0235 0,0.0312 -1.88738,1.46387 -3.73309,3.00216 -5.5,4.625 -7.7394,1.39532 -16.66841,-0.0948 -24.84375,-4.75 -0.0243,-0.0142 -0.17202,-0.098 -0.21875,-0.125 -12.70303,-7.33413 -26.98524,-6.43807 -31.875,2.03125 -0.0573,0.0992 -0.13328,0.21206 -0.1875,0.3125 -4.57299,8.46964 1.78958,21.09559 14.34375,28.34375 0.0496,0.0286 0.86789,0.49613 0.875,0.5 7.86234,4.80077 13.42596,11.76094 15.96875,19.0625 -0.50879,2.35339 -0.91189,4.70581 -1.21875,7.0625 -0.002,0.0119 -0.0297,0.0193 -0.0312,0.0312 -5.03266,6.02929 -12.8224,10.62632 -22.0625,12.3125 -0.0278,0.005 -0.19686,0.0219 -0.25,0.0312 -14.44538,2.54708 -24.79195,12.43154 -23.09375,22.0625 0.0199,0.11286 0.008,0.23196 0.0312,0.34375 1.94105,9.42759 14.94267,15.01725 29.21875,12.5 0.0564,-0.01 0.99207,-0.1859 1,-0.1875 9.10878,-1.37622 17.82751,0.38491 24.46875,4.34375 1.11673,2.1169 2.33544,4.19857 3.625,6.21875 0.0302,7.86413 -2.99586,16.41348 -9,23.65625 -0.0182,0.0214 -0.15282,0.14617 -0.1875,0.1875 -9.42856,11.23649 -10.99156,25.46384 -3.5,31.75 0.0878,0.0737 0.19175,0.14792 0.28125,0.21875 7.54685,5.97429 21.05694,1.91732 30.375,-9.1875 0.0368,-0.0439 0.6512,-0.77493 0.65625,-0.78125 6.09313,-6.90926 13.89907,-11.17 21.53125,-12.40625 0.99644,0.40494 2.01215,0.78533 3.03125,1.15625 1.2437,0.45267 2.49971,0.85777 3.75,1.25 0.003,8.8e-4 -0.003,0.0304 0,0.0312 5.06894,6.00379 8.25644,14.47702 8.3125,23.875 -1.9e-4,0.0281 0,0.2273 0,0.28125 -2e-5,14.66824 7.93922,26.5625 17.71875,26.5625 0.11459,3e-5 0.22966,0.003 0.34375,0 9.62141,-0.27447 17.37499,-12.06618 17.375,-26.5625 -2e-5,-0.0573 2e-4,-1.02316 0,-1.03125 0.2268,-9.2257 3.46395,-17.52037 8.53125,-23.375 2.26355,-0.73181 4.49426,-1.55501 6.6875,-2.46875 0.0112,0.002 0.02,-0.002 0.0312,0 7.74989,1.33585 15.62863,5.79813 21.71875,12.96875 0.0179,0.0217 0.15282,0.14617 0.1875,0.1875 9.42853,11.23653 23.16469,15.25491 30.65625,8.96875 0.0878,-0.0736 0.1647,-0.14291 0.25,-0.21875 7.19399,-6.39478 5.5368,-20.39516 -3.78125,-31.5 -0.0369,-0.0439 -0.65089,-0.80643 -0.65625,-0.8125 -5.73775,-7.1897 -8.56775,-15.59094 -8.46875,-23.3125 1.5e-4,-0.0114 -1.6e-4,-0.0199 0,-0.0312 1.26643,-2.01739 2.45433,-4.10554 3.5625,-6.25 0.002,-0.004 0.029,0.004 0.0312,0 6.79238,-3.948 15.67406,-5.60773 24.9375,-4.03125 0.0277,0.005 0.22812,0.0531 0.28125,0.0625 14.44535,2.54714 27.55179,-3.21279 29.25,-12.84375 0.0199,-0.11286 0.0147,-0.23082 0.0312,-0.34375 1.40043,-9.52289 -8.88016,-19.20147 -23.15625,-21.71875 -0.0564,-0.01 -0.99199,-0.1863 -1,-0.1875 -9.03014,-1.82217 -16.61328,-6.44596 -21.5,-12.4375 -0.009,-0.0106 -0.0226,-0.0206 -0.0312,-0.0312 -0.32965,-2.36336 -0.72824,-4.71303 -1.25,-7.03125 -0.002,-0.01 0.002,-0.0213 0,-0.0312 2.66131,-7.40021 8.41203,-14.37257 16.53125,-19.125 0.0245,-0.0139 0.17203,-0.098 0.21875,-0.125 12.70305,-7.33408 19.04601,-20.15567 14.15625,-28.625 -0.0573,-0.0993 -0.0964,-0.21532 -0.15625,-0.3125 -5.04842,-8.19516 -19.16455,-8.99815 -31.71875,-1.75 -0.0496,0.0287 -0.8681,0.49577 -0.875,0.5 -8.08875,4.4086 -16.87401,5.76117 -24.46875,4.3125 -1.77076,-1.60523 -3.61617,-3.13052 -5.53125,-4.59375 -0.005,-0.004 0.005,-0.0276 0,-0.0312 -2.71807,-7.37954 -2.78988,-16.42174 0.375,-25.28125 0.01,-0.0264 0.0753,-0.1993 0.0937,-0.25 5.01686,-13.7836 1.62726,-27.68644 -7.5625,-31.03125 -0.10767,-0.0392 -0.23541,-0.0891 -0.34375,-0.125 -1.5344,-0.50941 -3.13264,-0.70197 -4.75,-0.59375 z m -41.03125,108.1875 c 0.1494,-0.007 0.28717,0.003 0.4375,0 0.11409,-0.002 0.22915,0 0.34375,0 9.77953,-1e-5 17.71875,7.93922 17.71875,17.71875 10e-6,9.77953 -7.93922,17.71875 -17.71875,17.71875 -9.77953,10e-6 -17.71875,-7.93922 -17.71875,-17.71875 -1e-5,-9.51391 7.52529,-17.30352 16.9375,-17.71875 z"
         style="fill:url(#radialGradient3650);fill-opacity:1;fill-rule:nonzero;stroke:none;stroke-width:1.0629921;stroke-linecap:round;stroke-linejoin:round;stroke-miterlimit:4;stroke-opacity:1;stroke-dasharray:none" />
      <path
         id="path1338"
         d="m 513.77652,425.74049 c 0.45057,9.51695 12.21067,17.15626 26.59375,17.15626 0.0573,0 1.02314,2.1e-4 1.03125,10e-6 10.26885,0.25244 19.3697,4.26401 25.24998,10.34373 0.0102,0.0106 0.0211,0.0207 0.0313,0.0313 0.31221,0.78919 0.63122,1.56765 0.96874,2.34375 0.16218,8.68598 -3.66623,18.20167 -11.125,25.74999 -0.02,0.0198 -0.11811,0.14934 -0.15626,0.18749 -10.372,10.37201 -13.19641,24.39733 -6.28124,31.31251 0.081,0.081 0.16702,0.17163 0.24999,0.24999 6.9975,6.60929 20.81206,3.75045 31.06251,-6.50001 0.0405,-0.0405 0.74442,-0.71284 0.75,-0.71873 7.46502,-7.10675 16.76986,-10.72965 25.25,-10.56249 0.77648,0.33707 1.55423,0.65694 2.34373,0.96874 6.24696,6.02794 10.24927,15.46045 10.31251,26.0625 -1.7e-4,0.0282 10e-6,0.22731 0,0.28126 10e-6,14.66819 7.93922,26.5625 17.71876,26.56248 0.11459,0 0.22966,0.003 0.34375,0 9.62142,-0.27449 17.37501,-12.06618 17.37499,-26.56247 0,-0.0573 2.2e-4,-1.02315 10e-6,-1.03127 0.25348,-10.3096 4.28587,-19.46595 10.40627,-25.34375 0.76387,-0.3027 1.52962,-0.61108 2.28122,-0.9375 8.69522,-0.17295 18.22299,3.65638 25.78126,11.125 0.0198,0.02 0.14936,0.14934 0.1875,0.18749 10.37201,10.37201 24.39734,13.16519 31.31249,6.25 0.081,-0.081 0.17165,-0.167 0.25,-0.24999 6.60925,-6.9975 3.75046,-20.81204 -6.49999,-31.0625 -0.0405,-0.0405 -0.71287,-0.74442 -0.71875,-0.75001 -7.11478,-7.47342 -10.73842,-16.79341 -10.5625,-25.28124 0.32942,-0.75935 0.63223,-1.50935 0.93749,-2.28125 6.02657,-6.26558 15.47327,-10.28038 26.09375,-10.34374 0.0281,1.6e-4 0.2273,-1e-5 0.28127,-1e-5 14.66822,1e-5 26.56247,-7.93921 26.56249,-17.71874 0,-0.11463 0.003,-0.22966 0,-0.34376 -0.27452,-9.62142 -12.06619,-17.375 -26.5625,-17.37502 -0.0573,2e-5 -1.02315,-1.7e-4 -1.03125,2e-5 -10.30961,-0.25348 -19.46596,-4.28588 -25.34376,-10.40625 -0.30247,-0.76391 -0.61132,-1.52965 -0.93748,-2.28124 -0.17296,-8.69525 3.65638,-18.22297 11.12497,-25.78127 0.02,-0.0197 0.14937,-0.14934 0.18752,-0.18748 10.372,-10.37199 13.16519,-24.39733 6.25,-31.31251 -0.081,-0.081 -0.16703,-0.17163 -0.25001,-0.24999 -6.99747,-6.60928 -20.81203,-3.75046 -31.0625,6.49998 -0.0405,0.0405 -0.71318,0.7129 -0.71874,0.71877 -7.46924,7.11075 -16.79727,10.73403 -25.28124,10.56251 -0.75162,-0.32618 -1.51737,-0.63505 -2.28127,-0.93752 -6.27076,-6.02614 -10.31159,-15.46812 -10.37499,-26.09374 1.6e-4,-0.0281 -10e-6,-0.2273 0,-0.28125 1e-5,-14.66823 -7.93921,-26.5625 -17.71876,-26.56252 -0.11461,10e-6 -0.22965,-0.003 -0.34375,2e-5 -9.62142,0.2745 -17.375,12.06616 -17.37499,26.56248 -10e-6,0.0573 -2e-4,1.02317 0,1.03127 -0.25347,10.3096 -4.28587,19.46595 -10.40625,25.34374 -0.76205,0.30173 -1.50018,0.6122 -2.25001,0.9375 -8.69916,0.17759 -18.24993,-3.65215 -25.81249,-11.125 -0.0198,-0.02 -0.14935,-0.14934 -0.1875,-0.18749 -10.372,-10.37199 -24.39732,-13.16519 -31.3125,-6.25 -0.081,0.081 -0.17163,0.16703 -0.25,0.24999 -6.60927,6.99747 -3.75046,20.81204 6.5,31.0625 0.0405,0.0405 0.74413,0.74442 0.75,0.75001 7.10674,7.465 10.69842,16.76986 10.53125,25.24998 -0.33032,0.76061 -0.63146,1.53932 -0.93751,2.31253 -6.02655,6.26556 -15.47324,10.28036 -26.09374,10.34372 -0.0281,-1.6e-4 -0.19603,0 -0.24999,0 -14.66823,2e-5 -26.59377,7.93924 -26.59376,17.71875 -2e-5,0.11461 -0.003,0.22967 0,0.34376 0.002,0.0752 -0.004,0.14381 0,0.21875 z m 106.31249,0.59373 c -0.005,-0.0729 0.004,-0.14564 10e-6,-0.21873 -0.0153,-0.30182 0,-0.63188 -10e-6,-0.93749 0,-9.77953 7.93923,-17.71875 17.71876,-17.71876 9.77953,0 17.71875,7.93923 17.71873,17.71875 3e-5,9.77953 -7.9392,17.71873 -17.71872,17.71877 -9.39991,-10e-6 -17.1349,-7.30931 -17.71877,-16.56254 z"
         style="fill:url(#radialGradient3652);fill-opacity:1;fill-rule:nonzero;stroke:none;stroke-width:1.0629921;stroke-linecap:round;stroke-linejoin:round;stroke-miterlimit:4;stroke-opacity:1;stroke-dasharray:none" />
      <path
         style="fill:url(#radialGradient3654);fill-opacity:1;fill-rule:nonzero;stroke:none;stroke-width:1.0629921;stroke-linecap:round;stroke-linejoin:round;stroke-miterlimit:4;stroke-opacity:1;stroke-dasharray:none"
         d="m 346.55157,806.57976 c 5.14868,8.01663 19.15289,8.75242 31.60899,1.56088 0.0496,-0.0286 0.88618,-0.5114 0.89309,-0.51563 9.01932,-4.91578 18.90666,-5.99209 27.03901,-3.66705 0.0142,0.004 0.0285,0.007 0.0427,0.0114 0.66499,0.52736 1.33049,1.04202 2.01084,1.54537 4.48345,7.4412 5.92579,17.59622 3.24046,27.86266 -0.007,0.0271 -0.0276,0.18838 -0.0416,0.2405 -3.79642,14.16841 0.77023,27.72692 10.21653,30.25805 0.1107,0.0297 0.23045,0.0651 0.3415,0.0915 9.36463,2.22506 19.899,-7.15804 23.65092,-21.16041 0.0148,-0.0553 0.28825,-0.98958 0.29014,-0.99746 2.91153,-9.88713 9.15829,-17.67707 16.58589,-21.77239 0.84098,-0.0963 1.67446,-0.20817 2.51412,-0.33291 8.42399,2.09688 16.60633,8.26451 21.96214,17.41453 0.0139,0.0245 0.11365,0.19684 0.14063,0.24357 7.33409,12.70304 20.15681,19.03419 28.62613,14.14443 0.0992,-0.0573 0.20052,-0.11201 0.2977,-0.17188 8.19513,-5.04844 9.01411,-19.13712 1.76594,-31.6913 -0.0287,-0.0496 -0.51139,-0.88618 -0.51562,-0.89309 -4.9353,-9.0551 -6.02131,-19.00094 -3.6598,-27.15145 0.5102,-0.6441 1.01916,-1.29404 1.50687,-1.95253 7.4438,-4.49739 17.60973,-5.94496 27.88972,-3.25609 0.0271,0.007 0.20401,0.0547 0.25613,0.0686 14.16841,3.7964 27.71129,-0.79729 30.24242,-10.24359 0.0296,-0.11071 0.0651,-0.23046 0.0915,-0.34151 2.22504,-9.36463 -7.15804,-19.89899 -21.16041,-23.65091 -0.0553,-0.0148 -0.98958,-0.28825 -0.99746,-0.29014 -9.8983,-2.9148 -17.69644,-9.17432 -21.78802,-16.61296 -0.0944,-0.82235 -0.20714,-1.62325 -0.32872,-2.44437 2.08635,-8.43943 8.26003,-16.63969 17.42597,-22.00482 0.0245,-0.0139 0.19684,-0.11365 0.24357,-0.14063 12.70305,-7.33411 19.03419,-20.15682 14.14443,-28.62614 -0.0573,-0.0992 -0.11201,-0.20052 -0.17188,-0.29769 -5.04843,-8.19515 -19.13712,-9.01411 -31.6913,-1.76595 -0.0496,0.0286 -0.88618,0.5114 -0.89309,0.51563 -9.05512,4.93529 -19.00095,6.02131 -27.15145,3.6598 -0.6439,-0.51033 -1.29425,-1.01904 -1.95253,-1.50687 -4.4974,-7.44383 -5.94496,-17.60974 -3.25609,-27.88972 0.007,-0.0271 0.0547,-0.20401 0.0686,-0.25613 3.79642,-14.16841 -0.79728,-27.7113 -10.24359,-30.24242 -0.1107,-0.0297 -0.23046,-0.0651 -0.34151,-0.0915 -9.36463,-2.22505 -19.89899,7.15804 -23.65091,21.16042 -0.0148,0.0553 -0.26118,0.97396 -0.26308,0.98183 -2.91317,9.89272 -9.17984,17.69458 -16.61296,21.78802 -0.81399,0.0933 -1.63158,0.20872 -2.44437,0.32872 -8.44371,-2.08342 -16.66417,-8.23999 -22.03189,-17.41035 -0.0139,-0.0245 -0.11364,-0.19684 -0.14062,-0.24357 -7.33412,-12.70304 -20.15682,-19.03419 -28.62614,-14.14442 -0.0992,0.0573 -0.20052,0.11201 -0.29769,0.17187 -8.19516,5.04844 -9.01411,19.13713 -1.76595,31.6913 0.0286,0.0496 0.5114,0.88618 0.51563,0.89309 4.93529,9.05514 6.02131,19.00095 3.6598,27.15146 -0.5091,0.64233 -0.99308,1.28026 -1.47981,1.9369 -7.4449,4.50339 -17.631,5.96211 -27.91678,3.27172 -0.0271,-0.007 -0.20401,-0.0547 -0.25613,-0.0686 -14.16841,-3.7964 -27.7113,0.79728 -30.24242,10.24359 -0.0297,0.1107 -0.0651,0.23046 -0.0915,0.3415 -2.22507,9.36463 7.15804,19.89899 21.16042,23.65092 0.0553,0.0148 1.01664,0.27262 1.02452,0.27452 9.88712,2.91151 17.65002,9.17392 21.74533,16.60151 0.0942,0.82387 0.22279,1.64881 0.34435,2.47144 -2.08636,8.43942 -8.26004,16.63969 -17.42598,22.00482 -0.0245,0.0139 -0.16977,0.098 -0.2165,0.125 -12.70304,7.3341 -19.06126,20.17244 -14.17149,28.64176 0.0573,0.0993 0.11201,0.20053 0.17187,0.2977 0.0394,0.064 0.0688,0.12632 0.10938,0.18944 z m 92.3662,-52.64204 c -0.0404,-0.0608 -0.0696,-0.128 -0.10938,-0.18945 -0.16418,-0.25373 -0.31594,-0.54723 -0.46875,-0.8119 -4.88977,-8.46931 -1.9838,-19.31449 6.48552,-24.20426 8.46931,-4.88977 19.31449,-1.98381 24.20426,6.48551 4.88977,8.46932 1.98381,19.3145 -6.48551,24.20427 -8.14055,4.69996 -18.49391,2.23742 -23.62614,-5.48417 z"
         id="path1409" />
      <path
         id="path1411"
         d="m 929.58889,805.62811 c 4.36826,-8.4672 -1.99663,-20.9631 -14.45273,-28.15462 -0.0496,-0.0286 -0.88598,-0.51176 -0.8931,-0.51563 -8.76685,-5.35307 -14.64263,-13.3776 -16.69526,-21.58294 -0.004,-0.0143 -0.008,-0.0284 -0.0114,-0.0427 0.12421,-0.83958 0.23717,-1.67325 0.33291,-2.51413 4.20254,-7.60338 12.27588,-13.92999 22.50954,-16.73765 0.0272,-0.007 0.17694,-0.0703 0.22906,-0.0843 14.16841,-3.7964 23.6271,-14.53049 21.09598,-23.97679 -0.0297,-0.1107 -0.0588,-0.23214 -0.0915,-0.3415 -2.75536,-9.22254 -16.14855,-13.65402 -30.15092,-9.90209 -0.0553,0.0148 -1.00112,0.24515 -1.00889,0.24746 -10.01827,2.4221 -19.88794,0.90722 -27.14839,-3.47761 -0.5039,-0.68016 -1.01751,-1.34604 -1.54537,-2.01084 -2.39604,-8.34383 -1.14589,-18.51376 4.10036,-27.72703 0.0142,-0.0243 0.11364,-0.19685 0.14062,-0.24358 7.33411,-12.70303 6.40569,-26.9734 -2.06363,-31.86317 -0.0992,-0.0573 -0.19726,-0.11765 -0.2977,-0.17187 -8.46964,-4.57298 -21.08029,1.76211 -28.32844,14.3163 -0.0286,0.0496 -0.51176,0.88596 -0.51563,0.89308 -5.3743,8.80165 -13.44464,14.71508 -21.68395,16.74521 -0.8129,-0.1198 -1.63025,-0.2356 -2.44437,-0.32873 -7.61676,-4.19782 -13.95335,-12.27799 -16.76472,-22.52516 -0.007,-0.0272 -0.0547,-0.20401 -0.0686,-0.25613 -3.79642,-14.1684 -14.54612,-23.60003 -23.99242,-21.06891 -0.1107,0.0297 -0.23214,0.0588 -0.3415,0.0915 -9.22253,2.75537 -13.65401,16.14854 -9.90209,30.15091 0.0149,0.0553 0.24516,1.00112 0.24746,1.00889 2.42486,10.02958 0.90303,19.91273 -3.49323,27.17546 -0.66498,0.49292 -1.30221,0.99101 -1.95253,1.50686 -8.35193,2.41289 -18.54041,1.16645 -27.76972,-4.08892 -0.0243,-0.0142 -0.19684,-0.11364 -0.24357,-0.14062 -12.70305,-7.33411 -26.97341,-6.40568 -31.86318,2.06363 -0.0573,0.0993 -0.11765,0.19727 -0.17187,0.2977 -4.57299,8.46964 1.76211,21.08029 14.3163,28.32845 0.0496,0.0286 0.88597,0.51175 0.89309,0.51562 8.80165,5.37432 14.71508,13.44465 16.7452,21.68395 -0.12,0.81279 -0.23539,1.63037 -0.32872,2.44437 -4.19784,7.61678 -12.278,13.95336 -22.52516,16.76472 -0.0272,0.007 -0.20401,0.0547 -0.25613,0.0686 -14.16841,3.79641 -23.60005,14.54611 -21.06891,23.99242 0.0297,0.1107 0.0588,0.23215 0.0915,0.34151 2.75536,9.22253 16.14854,13.65401 30.15091,9.90208 0.0553,-0.0149 0.97407,-0.26079 0.98183,-0.26308 10.02393,-2.42348 19.91388,-0.89732 27.17546,3.49323 0.48782,0.65827 0.99655,1.30863 1.50687,1.95253 2.41756,8.35418 1.19604,18.55159 -4.06186,27.78535 -0.0142,0.0243 -0.11365,0.19683 -0.14063,0.24356 -7.3341,12.70306 -6.40568,26.97342 2.06364,31.86318 0.0992,0.0573 0.19726,0.11765 0.29769,0.17187 8.46966,4.573 21.0803,-1.76212 28.32845,-14.31629 0.0286,-0.0496 0.51175,-0.88598 0.51562,-0.89309 5.37434,-8.80166 13.44465,-14.71509 21.68395,-16.74521 0.81083,0.11972 1.60528,0.2199 2.41731,0.3131 7.6225,4.19578 13.97884,12.28784 16.79179,22.54078 0.007,0.0272 0.0547,0.20401 0.0686,0.25613 3.79642,14.1684 14.54611,23.60005 23.99241,21.06891 0.11071,-0.0296 0.23215,-0.0588 0.34151,-0.0915 9.22254,-2.75535 13.65401,-16.14854 9.90208,-30.15092 -0.0148,-0.0553 -0.27222,-1.01675 -0.27451,-1.02452 -2.42212,-10.01826 -0.88017,-19.87233 3.50466,-27.13277 0.66637,-0.49355 1.31652,-1.01734 1.96815,-1.53393 8.35194,-2.41287 18.54042,-1.16644 27.76973,4.08893 0.0243,0.0142 0.16977,0.098 0.2165,0.12499 12.70304,7.33411 27.00048,6.42132 31.89024,-2.04801 0.0573,-0.0992 0.11766,-0.19726 0.17188,-0.29769 0.0357,-0.0662 0.075,-0.12277 0.10937,-0.18945 z m -91.77245,-53.67045 c -0.0324,0.0654 -0.076,0.12428 -0.10937,0.18945 -0.13765,0.26905 -0.31595,0.54723 -0.46875,0.8119 -4.88976,8.46932 -15.73494,11.37526 -24.20427,6.4855 -8.46932,-4.88975 -11.37527,-15.73493 -6.48551,-24.20426 4.88976,-8.46932 15.73494,-11.37528 24.20427,-6.48551 8.14056,4.69994 11.18461,14.89748 7.06363,23.20292 z"
         style="fill:url(#radialGradient3656);fill-opacity:1;fill-rule:nonzero;stroke:none;stroke-width:1.0629921;stroke-linecap:round;stroke-linejoin:round;stroke-miterlimit:4;stroke-opacity:1;stroke-dasharray:none" />
      <path
         sodipodi:nodetypes="cssssccssccssscssssscssssscssscscsssccssscsssssccsssccsssccssscsssscssscsssssccccssccssssssccssssssssssccssssssccssssssccssssssccssssssccssssssccsssssccscccsssssssssccssscsscsssssscscsssssscsscssssscscssssssccsscscsscscsssssccsssccssssssccssssssccsssssssssccssssscsccssssccccssssc"
         id="path1371"
         d="m 634.1875,248 c -191.23191,1.58284 -357.14318,143.95978 -382.8125,338.9375 -28.08265,213.30893 122.25356,409.19857 335.5625,437.2813 0.83322,0.1097 1.63605,0.2083 2.46875,0.3124 17.0037,2.1291 48.79521,3.0313 48.375,3.0313 -67.99552,0 -127.88056,-34.88808 -162.75,-87.71875 -2.87145,0.57952 -5.26311,0.67496 -6.71875,0.65625 -1.61698,-0.90792 -3.2429,-1.81708 -4.84375,-2.75 -0.003,-0.003 -0.0285,-0.0287 -0.0312,-0.0312 -2.11013,-3.74342 -6.12685,-12.92696 -3.0625,-24.34375 -6.43248,-14.11108 -11.26623,-29.11243 -14.1875,-44.78125 -7.621,2.38916 -15.89956,8.07402 -23.90625,13.3125 -11.58509,7.57962 -23.1231,5.135 -26.78125,4.0625 -0.002,3.2e-4 -0.0242,10e-5 -0.0312,0 -1.19846,-1.17057 -2.38101,-2.37486 -3.5625,-3.5625 -1.12014,-4.15258 -3.02359,-15.18584 4.21875,-26.25 9.17557,-14.01758 19.71715,-28.86314 11.53125,-39.53125 -8.1859,-10.6681 -25.27038,-4.32555 -41.1875,0.90625 -13.67879,4.49606 -24.5075,-1.45503 -27.28125,-3.21875 -0.003,-0.002 -0.0285,-0.0287 -0.0312,-0.0312 -0.70756,-1.19422 -1.43141,-2.39042 -2.125,-3.59375 -0.0944,-3.81142 0.52583,-15.55852 10.84375,-24.78125 12.49095,-11.16511 26.52086,-22.79549 21.375,-35.21875 -5.14587,-12.42329 -23.27115,-10.74637 -40,-9.8125 -15.16052,0.84626 -24.24195,-8.70341 -25.8125,-10.5 -0.003,-0.003 -0.0286,-0.0287 -0.0312,-0.0312 -0.3108,-1.12426 -0.60653,-2.24623 -0.90625,-3.375 0.76967,-3.3758 4.27462,-15.02742 16.96875,-21.4375 14.95507,-7.5518 31.50514,-15.13695 29.75,-28.46875 -1.75515,-13.33182 -19.72447,-16.41606 -36.125,-19.84375 -14.77088,-3.08714 -21.08047,-14.53641 -22.1875,-16.78125 -0.007,-0.88339 0,-1.77134 0,-2.65625 0,-0.32534 -9e-4,-0.64365 0,-0.96875 1.6671,-3.13261 8.06873,-13.39242 21.90625,-16.28125 16.40004,-3.42382 34.36982,-6.44945 36.125,-19.78125 1.75518,-13.33181 -14.79545,-20.94434 -29.75,-28.5 -13.55256,-6.84736 -16.66203,-19.65777 -17.125,-22 0.29604,-1.1374 0.59898,-2.27344 0.90625,-3.40625 2.32354,-2.50527 11.19311,-10.89209 25.4375,-10.09375 16.72737,0.93748 34.8541,2.64201 40,-9.78125 5.1459,-12.42328 -8.88555,-24.08126 -21.375,-35.25 -10.96484,-9.80537 -10.97094,-22.46096 -10.8125,-25.40625 0.67889,-1.19069 1.36997,-2.38067 2.0625,-3.5625 0.007,-9e-5 0.0295,-2.9e-4 0.0312,0 3.34904,-2.02403 13.77685,-7.22538 26.8125,-2.9375 15.91476,5.23493 33.00156,11.57435 41.1875,0.90625 8.18593,-10.6681 -2.35805,-25.54182 -11.53125,-39.5625 -7.59655,-11.61088 -5.13129,-23.15749 -4.0625,-26.78125 1.17638,-1.19384 2.36906,-2.38572 3.5625,-3.5625 4.15255,-1.12014 15.18583,-3.0236 26.25,4.21875 14.01758,9.17558 28.86314,19.71716 39.53125,11.53125 10.66812,-8.18591 4.35681,-25.27036 -0.875,-41.1875 -4.20997,-12.80832 0.72497,-23.11934 2.8125,-26.65625 1.61228,-0.95026 3.24617,-1.8877 4.875,-2.8125 4.5002,0.0433 15.29689,1.24331 23.90625,10.875 11.16514,12.49096 22.79547,26.52087 35.21875,21.375 12.42325,-5.14588 10.74638,-23.30238 9.8125,-40.03125 -0.72294,-12.94963 6.14424,-21.47037 9.28125,-24.65625 2.05459,-0.56914 4.11779,-1.12418 6.1875,-1.65625 4.55045,1.33757 14.23816,5.36842 19.875,16.53125 7.55175,14.95508 15.13693,31.5364 28.46875,29.78125 13.33177,-1.75517 16.41607,-19.72445 19.84375,-36.125 2.53058,-12.10822 10.68875,-18.53191 14.78125,-21.0625 0.007,-1e-4 0.0298,-3.2e-4 0.0312,0 0.26829,-0.003 0.54615,-0.0231 0.8125,-0.0312 0.15981,-0.005 0.30762,10e-4 0.46875,0 0.74684,-0.005 1.47077,0 2.21875,0 1.33794,0 2.66559,0.0161 4,0.0312 4.21008,2.69757 11.9304,9.07166 14.375,20.78125 3.42378,16.40002 6.44946,34.33858 19.78125,36.09375 13.33175,1.75517 20.94436,-14.79546 28.5,-29.75 5.42487,-10.7372 14.60489,-14.8808 19.34375,-16.375 2.66489,0.6805 5.32885,1.3519 7.96875,2.09375 7e-5,0.004 2e-5,0.0284 0,0.0312 3.39851,3.8348 8.86923,11.86252 8.21875,23.46875 -0.93754,16.72735 -2.67325,34.85411 9.75,40 12.42323,5.14588 24.08129,-8.85432 35.25,-21.34375 5.10844,-5.71255 10.99416,-8.45285 15.875,-9.75 -33.97702,-51.7772 -91.92075,-86.42189 -158.03125,-88.09375 8.74661,0.11075 2.85145,-0.18874 -8.625,-0.0937 z m 2.6875,53.1875 c -9.36041,0.70579 -16.78126,12.34842 -16.78125,26.5625 -4e-5,0.0573 -2e-4,1.02315 0,1.03125 -0.2535,10.30959 -4.28587,19.46596 -10.40625,25.34375 -0.76208,0.30174 -1.50017,0.6122 -2.25,0.9375 -8.69914,0.1776 -18.24994,-3.65215 -25.8125,-11.125 -0.0198,-0.02 -0.14935,-0.14935 -0.1875,-0.1875 -10.37203,-10.372 -24.39732,-13.16519 -31.3125,-6.25 -0.0811,0.081 -0.17163,0.16704 -0.25,0.25 -6.6093,6.99748 -3.75046,20.81204 6.5,31.0625 0.0405,0.0405 0.74413,0.74441 0.75,0.75 7.10671,7.46499 10.69842,16.76988 10.53125,25.25 -0.33035,0.76061 -0.63145,1.53929 -0.9375,2.3125 -6.02653,6.26556 -15.47325,10.28039 -26.09375,10.34375 -0.0282,-1.6e-4 -0.19604,0 -0.25,0 -14.66825,2e-5 -26.59376,7.93924 -26.59375,17.71875 -5e-5,0.11461 -0.003,0.22966 0,0.34375 2.6e-4,0.009 -5e-5,0.022 0,0.0312 -5.3e-4,0.0545 -0.003,0.1313 0,0.1875 0.45054,9.51696 12.21067,17.15625 26.59375,17.15625 0.0573,-1e-5 1.02314,2e-4 1.03125,0 10.26882,0.25244 19.36972,4.26403 25.25,10.34375 0.0103,0.0106 0.021,0.0206 0.0312,0.0312 0.31219,0.78918 0.63123,1.56765 0.96875,2.34375 0.16215,8.68597 -3.66623,18.20168 -11.125,25.75 -0.0234,0.0276 -0.0878,0.1117 -0.125,0.15625 -0.006,0.007 -0.0265,0.0265 -0.0312,0.0312 -10.37198,10.37201 -13.19642,24.39732 -6.28125,31.3125 0.081,0.0811 0.16703,0.17164 0.25,0.25 6.99752,6.60929 20.81205,3.75046 31.0625,-6.5 0.0405,-0.0405 0.74442,-0.71286 0.75,-0.71875 7.46499,-7.10674 16.76986,-10.72966 25.25,-10.5625 0.77645,0.33706 1.55425,0.65695 2.34375,0.96875 6.24697,6.02795 10.24926,15.46045 10.3125,26.0625 -1.5e-4,0.0282 10e-6,0.2273 0,0.28125 3e-5,14.66821 7.93921,26.56252 17.71875,26.5625 0.11456,0 0.22966,0.003 0.34375,0 9.62139,-0.27449 17.37502,-12.06621 17.375,-26.5625 2e-5,-0.0574 2.1e-4,-1.02313 0,-1.03125 0.25345,-10.30959 4.28585,-19.46595 10.40625,-25.34375 0.76386,-0.30269 1.52965,-0.61108 2.28125,-0.9375 8.69524,-0.17294 18.22298,3.65638 25.78125,11.125 0.0198,0.02 0.14936,0.14935 0.1875,0.1875 10.37198,10.37201 24.39735,13.16519 31.3125,6.25 0.0811,-0.081 0.17165,-0.16701 0.25,-0.25 6.60927,-6.99749 3.75045,-20.81204 -6.5,-31.0625 -0.0406,-0.0405 -0.71287,-0.74441 -0.71875,-0.75 -7.11481,-7.47342 -10.73842,-16.79342 -10.5625,-25.28125 0.32939,-0.75934 0.63224,-1.50935 0.9375,-2.28125 6.02659,-6.26557 15.47327,-10.28039 26.09375,-10.34375 0.0282,1.5e-4 0.22728,0 0.28125,0 14.6682,2e-5 26.56248,-7.93922 26.5625,-17.71875 -3e-5,-0.11464 0.003,-0.22965 0,-0.34375 -0.27455,-9.62141 -12.06619,-17.37498 -26.5625,-17.375 -0.0573,1e-5 -1.02315,-1.9e-4 -1.03125,0 -10.30964,-0.25347 -19.46595,-4.28588 -25.34375,-10.40625 -0.30245,-0.7639 -0.61134,-1.52966 -0.9375,-2.28125 -0.17298,-8.69526 3.65641,-18.22295 11.125,-25.78125 0.02,-0.0197 0.14935,-0.14936 0.1875,-0.1875 10.37197,-10.372 13.16519,-24.39732 6.25,-31.3125 -0.0811,-0.081 -0.16702,-0.17164 -0.25,-0.25 -6.99745,-6.60929 -20.81203,-3.75044 -31.0625,6.5 -0.0405,0.0405 -0.71319,0.71288 -0.71875,0.71875 -7.46927,7.11074 -16.79728,10.73402 -25.28125,10.5625 -0.75164,-0.32618 -1.51735,-0.63503 -2.28125,-0.9375 -6.27074,-6.02613 -10.3116,-15.46813 -10.375,-26.09375 1.3e-4,-0.0282 -10e-6,-0.2273 0,-0.28125 -2e-5,-14.66824 -7.9392,-26.56248 -17.71875,-26.5625 -0.11459,1e-5 -0.22965,-0.003 -0.34375,0 -0.15033,0.004 -0.31935,-0.01 -0.46875,0 -0.0368,0.002 -0.0883,-0.003 -0.125,0 z M 816.5,365.125 c -5.15538,15.59689 -10.95555,32.06363 -0.53125,40.0625 4.00854,3.07587 8.60349,3.51615 13.53125,2.375 -2.71522,-14.80295 -7.13932,-29.00463 -13,-42.4375 z m -179.8125,42.34375 c 0.0729,-0.005 0.14565,0.004 0.21875,0 0.30183,-0.0153 0.60064,0 0.90625,0 9.7795,10e-6 17.71877,7.93923 17.71875,17.71875 4e-5,9.77954 -7.93923,17.71871 -17.71875,17.71875 -9.39993,-10e-6 -17.13488,-7.30927 -17.71875,-16.5625 -4.3e-4,-0.007 2.5e-4,-0.0238 0,-0.0312 -6.1e-4,-0.0476 -4.1e-4,-0.11521 0,-0.15625 8e-5,-0.006 2.3e-4,-0.0267 0,-0.0312 -0.0153,-0.30181 10e-6,-0.63189 0,-0.9375 2e-5,-9.39991 7.33994,-17.13478 16.59375,-17.71875 z m 41.59375,104.375 c -0.0793,0.006 -0.17418,0.0262 -0.25,0.0312 -8.0116,0.53607 -16.531,8.291 -20.65625,19.625 -0.0196,0.0538 -0.34118,0.96108 -0.34375,0.96875 -3.35662,8.56132 -9.23468,15.22436 -15.96875,19 -1.6678,-0.0635 -3.34046,-0.0654 -5,-0.0312 -0.73887,0.0152 -1.48223,0.0595 -2.21875,0.0937 -0.002,2.5e-4 -0.0241,8e-5 -0.0312,0 -6.81668,-3.90805 -12.67051,-10.81297 -15.9375,-19.625 -0.01,-0.0265 -0.0753,-0.19929 -0.0937,-0.25 -5.01684,-13.78364 -16.56025,-22.25105 -25.75,-18.90625 -0.10772,0.0391 -0.20641,0.0829 -0.3125,0.125 -8.94732,3.54864 -12.20804,17.28417 -7.25,30.90625 0.0196,0.0538 0.34079,0.96121 0.34375,0.96875 2.937,8.7314 2.74546,17.61596 0,24.84375 -6e-5,0.007 -1.8e-4,0.0298 0,0.0312 -1.88741,1.46384 -3.73309,3.00216 -5.5,4.625 -7.73943,1.39529 -16.66841,-0.0948 -24.84375,-4.75 -0.0243,-0.0142 -0.17202,-0.098 -0.21875,-0.125 -12.70306,-7.33416 -26.98524,-6.43807 -31.875,2.03125 -0.0573,0.0992 -0.13328,0.21206 -0.1875,0.3125 -4.57302,8.46961 1.78958,21.09559 14.34375,28.34375 0.0496,0.0286 0.86789,0.49613 0.875,0.5 7.86231,4.80074 13.42596,11.76094 15.96875,19.0625 -0.50882,2.35336 -0.91189,4.70581 -1.21875,7.0625 7e-5,0.003 -2e-4,0.0275 0,0.0312 -0.003,-4e-5 -0.0276,1.5e-4 -0.0312,0 -5.03269,6.02926 -12.8224,10.62632 -22.0625,12.3125 -0.0278,0.005 -0.19686,0.0219 -0.25,0.0312 -14.44541,2.54705 -24.79195,12.43154 -23.09375,22.0625 0.0174,0.0987 0.0178,0.21326 0.0312,0.3125 -6e-5,0.003 1.6e-4,0.0282 0,0.0312 1.38755,6.73923 8.4145,11.52377 17.53125,12.78125 0.007,-0.005 0.0242,0.005 0.0312,0 27.45834,-19.71128 60.25819,-32.48357 95.78125,-35.6875 -0.011,-0.25574 -0.0312,-0.52283 -0.0312,-0.78125 -4e-5,-9.47678 7.48308,-17.24784 16.84375,-17.71875 0.009,-4.6e-4 0.0236,-4e-5 0.0312,0 0.0142,4.3e-4 0.0441,8.1e-4 0.0625,0 0.14937,-0.007 0.28717,0.003 0.4375,0 0.11406,-0.002 0.22915,0 0.34375,0 9.51209,-4e-5 17.26963,7.49645 17.6875,16.90625 23.71917,-2.13573 46.20955,-8.49876 66.71875,-18.375 2.7101,-7.28217 8.40296,-14.12793 16.40625,-18.8125 0.0244,-0.0139 0.17203,-0.098 0.21875,-0.125 12.70302,-7.33411 19.04601,-20.15567 14.15625,-28.625 -0.0448,-0.0823 -0.0801,-0.19891 -0.125,-0.28125 -0.006,-0.005 -0.0256,-0.0258 -0.0312,-0.0312 -5.04845,-8.19519 -19.16455,-8.99815 -31.71875,-1.75 -0.0496,0.0286 -0.8681,0.49577 -0.875,0.5 -8.08878,4.40857 -16.87401,5.76117 -24.46875,4.3125 -1.77079,-1.60526 -3.61617,-3.13052 -5.53125,-4.59375 3e-4,-0.002 9e-5,-0.0242 0,-0.0312 -2.7181,-7.37957 -2.78988,-16.42174 0.375,-25.28125 0.01,-0.0264 0.0753,-0.1993 0.0937,-0.25 5.01683,-13.78363 1.62726,-27.68644 -7.5625,-31.03125 -0.1077,-0.0393 -0.23541,-0.0891 -0.34375,-0.125 -1.39058,-0.46168 -2.81913,-0.67184 -4.28125,-0.625 -0.0756,0.002 -0.13942,-0.006 -0.21875,0 z m -195.75,112.03125 c -0.18135,10e-4 -0.35091,0.0221 -0.53125,0.0312 -8.37713,0.42523 -16.88991,9.16197 -20.1875,21.46875 -0.0148,0.0553 -0.27935,0.99213 -0.28125,1 -2.91316,9.89271 -9.16063,17.68781 -16.59375,21.78125 -0.81399,0.0933 -1.65596,0.22375 -2.46875,0.34375 -8.44371,-2.08345 -16.66353,-8.26714 -22.03125,-17.4375 -0.0139,-0.0244 -0.098,-0.17202 -0.125,-0.21875 -7.33412,-12.70306 -20.15568,-19.04602 -28.625,-14.15625 -0.0993,0.0573 -0.21533,0.12764 -0.3125,0.1875 -8.19516,5.04847 -8.99816,19.13333 -1.75,31.6875 0.0286,0.0496 0.49577,0.86809 0.5,0.875 4.9353,9.05514 6.01776,19.00574 3.65625,27.15625 -0.50911,0.6423 -0.98202,1.28086 -1.46875,1.9375 -7.44489,4.50338 -17.62047,5.97164 -27.90625,3.28125 -0.0271,-0.008 -0.19788,-0.0485 -0.25,-0.0625 -14.1684,-3.79639 -27.71888,0.77244 -30.25,10.21875 -0.0297,0.11071 -0.0674,0.23271 -0.0937,0.34375 -2.22506,9.36465 7.15387,19.90432 21.15625,23.65625 0.0553,0.0148 1.02337,0.27935 1.03125,0.28125 9.88713,2.91149 17.65469,9.16616 21.75,16.59375 0.0942,0.82386 0.22219,1.64612 0.34375,2.46875 -2.08636,8.43942 -8.27156,16.63487 -17.4375,22 -0.0245,0.0139 -0.17202,0.098 -0.21875,0.125 -12.70303,7.33409 -19.04602,20.18693 -14.15625,28.65625 0.0573,0.0993 0.0964,0.18408 0.15625,0.28125 0.0394,0.064 0.0845,0.15563 0.125,0.21875 5.14868,8.01662 19.13765,8.75404 31.59375,1.5625 0.0496,-0.0286 0.89934,-0.52702 0.90625,-0.53125 9.01932,-4.91577 18.8989,-5.98129 27.03125,-3.65625 0.002,-1.3e-4 0.0291,5.1e-4 0.0312,0 0.66499,0.52734 1.3509,1.0279 2.03125,1.53125 4.48346,7.4412 5.90408,17.60856 3.21875,27.875 1.4e-4,0.003 -10e-6,0.0282 0,0.0312 -0.007,0.0444 -0.0232,0.13436 -0.0312,0.1875 -10e-4,0.007 0.001,0.0264 0,0.0312 -3.79642,14.16842 0.77245,27.71887 10.21875,30.25 0.11071,0.0297 0.2327,0.0674 0.34375,0.0937 8.01116,1.90348 16.87914,-4.6957 21.625,-15.40625 -0.42268,-5.23584 -0.625,-10.53087 -0.625,-15.875 0,-25.06611 4.74237,-49.04299 13.375,-71.0625 -6.63456,0.99037 -13.49576,-1.85106 -17.375,-7.6875 -0.0326,-0.0537 -0.0616,-0.13335 -0.0937,-0.1875 -0.16417,-0.25375 -0.31594,-0.54783 -0.46875,-0.8125 -4.88976,-8.46928 -2.00057,-19.32898 6.46875,-24.21875 2.74591,-1.58536 5.75729,-2.3525 8.71875,-2.375 6.16305,-0.0468 12.19228,3.13716 15.5,8.84375 10.8922,-18.80282 24.84037,-35.62729 41.15625,-49.78125 -3.13925,0.0244 -6.18007,-0.37046 -9,-1.1875 -0.64391,-0.5103 -1.31047,-1.01217 -1.96875,-1.5 -4.49739,-7.44383 -5.93887,-17.62627 -3.25,-27.90625 0.007,-0.0271 0.0485,-0.19788 0.0625,-0.25 3.79641,-14.16839 -0.80369,-27.71888 -10.25,-30.25 -0.11071,-0.0297 -0.20145,-0.0674 -0.3125,-0.0937 -0.95681,-0.22734 -1.95821,-0.35078 -2.9375,-0.34375 z"
         style="opacity:0.5;fill:url(#radialGradient3658);fill-opacity:1;fill-rule:nonzero;stroke:none" />
    </g>
  </g>
</svg>
